<?xml version="1.0" encoding="UTF-8" standalone="no"?>
<!DOCTYPE svg PUBLIC "-//W3C//DTD SVG 1.1//EN" "http://www.w3.org/Graphics/SVG/1.1/DTD/svg11.dtd">
<!-- Created with Vectornator (http://vectornator.io/) -->
<svg height="100%" stroke-miterlimit="10" style="fill-rule:nonzero;clip-rule:evenodd;stroke-linecap:round;stroke-linejoin:round;" version="1.1" viewBox="0 0 100 100" width="100%" xml:space="preserve" xmlns="http://www.w3.org/2000/svg" xmlns:vectornator="http://vectornator.io" xmlns:xlink="http://www.w3.org/1999/xlink">
<defs/>
<g id="Layer-1" vectornator:layerName="Layer 1">
<path d="M50 20C33.4315 20 20 33.4315 20 50L25 50C25 36.1929 36.1929 25 50 25C63.8071 25 75 36.1929 75 50L80 50C80 33.4315 66.5685 20 50 20Z" fill="#f68c7a" fill-rule="nonzero" opacity="1" stroke="none" vectornator:layerName="Curve 1"/>
<path d="M50 30C38.9543 30 30 38.9543 30 50L35 50C35 41.7157 41.7157 35 50 35C58.2843 35 65 41.7157 65 50L70 50C70 38.9543 61.0457 30 50 30Z" fill="#f68c7a" fill-rule="nonzero" opacity="1" stroke="none" vectornator:layerName="Curve 2"/>
<path d="M50 10C27.9086 10 10 27.9086 10 50L15 50C15 30.67 30.67 15 50 15C69.33 15 85 30.67 85 50L90 50C90 27.9086 72.0914 10 50 10Z" fill="#f68c7a" fill-rule="nonzero" opacity="1" stroke="none" vectornator:layerName="Curve 3"/>
<path d="M50 40C44.4772 40 40 44.4772 40 50L45 50C45 47.2386 47.2386 45 50 45C52.7614 45 55 47.2386 55 50L60 50C60 44.4772 55.5228 40 50 40Z" fill="#f68c7a" fill-rule="nonzero" opacity="1" stroke="none" vectornator:layerName="Curve 5"/>
<path d="M50 0C22.3858 0 0 22.3858 0 50L5 50C5 25.1472 25.1472 5 50 5C74.8528 5 95 25.1472 95 50L100 50C100 22.3858 77.6142 0 50 0Z" fill="#f68c7a" fill-rule="nonzero" opacity="1" stroke="none" vectornator:layerName="Curve 8"/>
</g>
</svg>
