<?xml version="1.0" encoding="UTF-8" standalone="no"?>
<!DOCTYPE svg PUBLIC "-//W3C//DTD SVG 1.1//EN" "http://www.w3.org/Graphics/SVG/1.1/DTD/svg11.dtd">
<!-- Created with Vectornator (http://vectornator.io/) -->
<svg height="100%" stroke-miterlimit="10" style="fill-rule:nonzero;clip-rule:evenodd;stroke-linecap:round;stroke-linejoin:round;" version="1.1" viewBox="0 0 100 100" width="100%" xml:space="preserve" xmlns="http://www.w3.org/2000/svg" xmlns:vectornator="http://vectornator.io" xmlns:xlink="http://www.w3.org/1999/xlink">
<defs/>
<g id="Layer-1" vectornator:layerName="Layer 1">
<path d="M35 50C35 58.2843 41.7157 65 50 65C58.2843 65 65 58.2843 65 50L60 50C60 55.5228 55.5228 60 50 60C44.4772 60 40 55.5228 40 50L35 50Z" fill="#f68c7a" fill-rule="nonzero" opacity="1" stroke="none" vectornator:layerName="Curve 13"/>
<path d="M15 50C15 69.33 30.67 85 50 85C69.33 85 85 69.33 85 50L80 50C80 66.5685 66.5685 80 50 80C33.4315 80 20 66.5685 20 50L15 50Z" fill="#f68c7a" fill-rule="nonzero" opacity="1" stroke="none" vectornator:layerName="Curve 14"/>
<path d="M5 50C5 74.8528 25.1472 95 50 95C74.8528 95 95 74.8528 95 50L90 50C90 72.0914 72.0914 90 50 90C27.9086 90 10 72.0914 10 50L5 50Z" fill="#f68c7a" fill-rule="nonzero" opacity="1" stroke="none" vectornator:layerName="Curve 15"/>
<path d="M45 50C45 52.7614 47.2386 55 50 55C52.7614 55 55 52.7614 55 50L45 50Z" fill="#f68c7a" fill-rule="nonzero" opacity="1" stroke="none" vectornator:layerName="Curve 16"/>
<path d="M25 50C25 63.8071 36.1929 75 50 75C63.8071 75 75 63.8071 75 50L70 50C70 61.0457 61.0457 70 50 70C38.9543 70 30 61.0457 30 50L25 50Z" fill="#f68c7a" fill-rule="nonzero" opacity="1" stroke="none" vectornator:layerName="Curve 17"/>
</g>
</svg>
