<?xml version="1.0" encoding="UTF-8" standalone="no"?>
<!DOCTYPE svg PUBLIC "-//W3C//DTD SVG 1.1//EN" "http://www.w3.org/Graphics/SVG/1.1/DTD/svg11.dtd">
<!-- Created with Vectornator (http://vectornator.io/) -->
<svg height="100%" stroke-miterlimit="10" style="fill-rule:nonzero;clip-rule:evenodd;stroke-linecap:round;stroke-linejoin:round;" version="1.1" viewBox="0 0 300 500" width="100%" xml:space="preserve" xmlns="http://www.w3.org/2000/svg" xmlns:vectornator="http://vectornator.io" xmlns:xlink="http://www.w3.org/1999/xlink">
<defs/>
<g id="Layer-1" vectornator:layerName="Layer 1">
<path d="M17.5 20C17.5 18.6193 18.6193 17.5 20 17.5C21.3807 17.5 22.5 18.6193 22.5 20C22.5 21.3807 21.3807 22.5 20 22.5C18.6193 22.5 17.5 21.3807 17.5 20Z" fill="#565656" fill-rule="nonzero" opacity="1" stroke="none" vectornator:layerName="Oval 1"/>
<path d="M37.5 20C37.5 18.6193 38.6193 17.5 40 17.5C41.3807 17.5 42.5 18.6193 42.5 20C42.5 21.3807 41.3807 22.5 40 22.5C38.6193 22.5 37.5 21.3807 37.5 20Z" fill="#565656" fill-rule="nonzero" opacity="1" stroke="none" vectornator:layerName="Oval 2"/>
<path d="M57.5 20C57.5 18.6193 58.6193 17.5 60 17.5C61.3807 17.5 62.5 18.6193 62.5 20C62.5 21.3807 61.3807 22.5 60 22.5C58.6193 22.5 57.5 21.3807 57.5 20Z" fill="#565656" fill-rule="nonzero" opacity="1" stroke="none" vectornator:layerName="Oval 3"/>
<path d="M77.5 20C77.5 18.6193 78.6193 17.5 80 17.5C81.3807 17.5 82.5 18.6193 82.5 20C82.5 21.3807 81.3807 22.5 80 22.5C78.6193 22.5 77.5 21.3807 77.5 20Z" fill="#565656" fill-rule="nonzero" opacity="1" stroke="none" vectornator:layerName="Oval 4"/>
<path d="M97.5 20C97.5 18.6193 98.6193 17.5 100 17.5C101.381 17.5 102.5 18.6193 102.5 20C102.5 21.3807 101.381 22.5 100 22.5C98.6193 22.5 97.5 21.3807 97.5 20Z" fill="#565656" fill-rule="nonzero" opacity="1" stroke="none" vectornator:layerName="Oval 5"/>
<path d="M17.5 40C17.5 38.6193 18.6193 37.5 20 37.5C21.3807 37.5 22.5 38.6193 22.5 40C22.5 41.3807 21.3807 42.5 20 42.5C18.6193 42.5 17.5 41.3807 17.5 40Z" fill="#565656" fill-rule="nonzero" opacity="1" stroke="none" vectornator:layerName="Oval 6"/>
<path d="M37.5 40C37.5 38.6193 38.6193 37.5 40 37.5C41.3807 37.5 42.5 38.6193 42.5 40C42.5 41.3807 41.3807 42.5 40 42.5C38.6193 42.5 37.5 41.3807 37.5 40Z" fill="#565656" fill-rule="nonzero" opacity="1" stroke="none" vectornator:layerName="Oval 7"/>
<path d="M57.5 40C57.5 38.6193 58.6193 37.5 60 37.5C61.3807 37.5 62.5 38.6193 62.5 40C62.5 41.3807 61.3807 42.5 60 42.5C58.6193 42.5 57.5 41.3807 57.5 40Z" fill="#565656" fill-rule="nonzero" opacity="1" stroke="none" vectornator:layerName="Oval 8"/>
<path d="M77.5 40C77.5 38.6193 78.6193 37.5 80 37.5C81.3807 37.5 82.5 38.6193 82.5 40C82.5 41.3807 81.3807 42.5 80 42.5C78.6193 42.5 77.5 41.3807 77.5 40Z" fill="#565656" fill-rule="nonzero" opacity="1" stroke="none" vectornator:layerName="Oval 9"/>
<path d="M97.5 40C97.5 38.6193 98.6193 37.5 100 37.5C101.381 37.5 102.5 38.6193 102.5 40C102.5 41.3807 101.381 42.5 100 42.5C98.6193 42.5 97.5 41.3807 97.5 40Z" fill="#565656" fill-rule="nonzero" opacity="1" stroke="none" vectornator:layerName="Oval 10"/>
<path d="M17.5 60C17.5 58.6193 18.6193 57.5 20 57.5C21.3807 57.5 22.5 58.6193 22.5 60C22.5 61.3807 21.3807 62.5 20 62.5C18.6193 62.5 17.5 61.3807 17.5 60Z" fill="#565656" fill-rule="nonzero" opacity="1" stroke="none" vectornator:layerName="Oval 11"/>
<path d="M37.5 60C37.5 58.6193 38.6193 57.5 40 57.5C41.3807 57.5 42.5 58.6193 42.5 60C42.5 61.3807 41.3807 62.5 40 62.5C38.6193 62.5 37.5 61.3807 37.5 60Z" fill="#565656" fill-rule="nonzero" opacity="1" stroke="none" vectornator:layerName="Oval 12"/>
<path d="M57.5 60C57.5 58.6193 58.6193 57.5 60 57.5C61.3807 57.5 62.5 58.6193 62.5 60C62.5 61.3807 61.3807 62.5 60 62.5C58.6193 62.5 57.5 61.3807 57.5 60Z" fill="#565656" fill-rule="nonzero" opacity="1" stroke="none" vectornator:layerName="Oval 13"/>
<path d="M77.5 60C77.5 58.6193 78.6193 57.5 80 57.5C81.3807 57.5 82.5 58.6193 82.5 60C82.5 61.3807 81.3807 62.5 80 62.5C78.6193 62.5 77.5 61.3807 77.5 60Z" fill="#565656" fill-rule="nonzero" opacity="1" stroke="none" vectornator:layerName="Oval 14"/>
<path d="M97.5 60C97.5 58.6193 98.6193 57.5 100 57.5C101.381 57.5 102.5 58.6193 102.5 60C102.5 61.3807 101.381 62.5 100 62.5C98.6193 62.5 97.5 61.3807 97.5 60Z" fill="#565656" fill-rule="nonzero" opacity="1" stroke="none" vectornator:layerName="Oval 15"/>
<path d="M17.5 80C17.5 78.6193 18.6193 77.5 20 77.5C21.3807 77.5 22.5 78.6193 22.5 80C22.5 81.3807 21.3807 82.5 20 82.5C18.6193 82.5 17.5 81.3807 17.5 80Z" fill="#565656" fill-rule="nonzero" opacity="1" stroke="none" vectornator:layerName="Oval 16"/>
<path d="M37.5 80C37.5 78.6193 38.6193 77.5 40 77.5C41.3807 77.5 42.5 78.6193 42.5 80C42.5 81.3807 41.3807 82.5 40 82.5C38.6193 82.5 37.5 81.3807 37.5 80Z" fill="#565656" fill-rule="nonzero" opacity="1" stroke="none" vectornator:layerName="Oval 17"/>
<path d="M57.5 80C57.5 78.6193 58.6193 77.5 60 77.5C61.3807 77.5 62.5 78.6193 62.5 80C62.5 81.3807 61.3807 82.5 60 82.5C58.6193 82.5 57.5 81.3807 57.5 80Z" fill="#565656" fill-rule="nonzero" opacity="1" stroke="none" vectornator:layerName="Oval 18"/>
<path d="M77.5 80C77.5 78.6193 78.6193 77.5 80 77.5C81.3807 77.5 82.5 78.6193 82.5 80C82.5 81.3807 81.3807 82.5 80 82.5C78.6193 82.5 77.5 81.3807 77.5 80Z" fill="#565656" fill-rule="nonzero" opacity="1" stroke="none" vectornator:layerName="Oval 19"/>
<path d="M97.5 80C97.5 78.6193 98.6193 77.5 100 77.5C101.381 77.5 102.5 78.6193 102.5 80C102.5 81.3807 101.381 82.5 100 82.5C98.6193 82.5 97.5 81.3807 97.5 80Z" fill="#565656" fill-rule="nonzero" opacity="1" stroke="none" vectornator:layerName="Oval 20"/>
<path d="M117.5 20C117.5 18.6193 118.619 17.5 120 17.5C121.381 17.5 122.5 18.6193 122.5 20C122.5 21.3807 121.381 22.5 120 22.5C118.619 22.5 117.5 21.3807 117.5 20Z" fill="#565656" fill-rule="nonzero" opacity="1" stroke="none" vectornator:layerName="Oval 21"/>
<path d="M137.5 20C137.5 18.6193 138.619 17.5 140 17.5C141.381 17.5 142.5 18.6193 142.5 20C142.5 21.3807 141.381 22.5 140 22.5C138.619 22.5 137.5 21.3807 137.5 20Z" fill="#565656" fill-rule="nonzero" opacity="1" stroke="none" vectornator:layerName="Oval 22"/>
<path d="M157.5 20C157.5 18.6193 158.619 17.5 160 17.5C161.381 17.5 162.5 18.6193 162.5 20C162.5 21.3807 161.381 22.5 160 22.5C158.619 22.5 157.5 21.3807 157.5 20Z" fill="#565656" fill-rule="nonzero" opacity="1" stroke="none" vectornator:layerName="Oval 23"/>
<path d="M177.5 20C177.5 18.6193 178.619 17.5 180 17.5C181.381 17.5 182.5 18.6193 182.5 20C182.5 21.3807 181.381 22.5 180 22.5C178.619 22.5 177.5 21.3807 177.5 20Z" fill="#565656" fill-rule="nonzero" opacity="1" stroke="none" vectornator:layerName="Oval 24"/>
<path d="M197.5 20C197.5 18.6193 198.619 17.5 200 17.5C201.381 17.5 202.5 18.6193 202.5 20C202.5 21.3807 201.381 22.5 200 22.5C198.619 22.5 197.5 21.3807 197.5 20Z" fill="#565656" fill-rule="nonzero" opacity="1" stroke="none" vectornator:layerName="Oval 25"/>
<path d="M117.5 40C117.5 38.6193 118.619 37.5 120 37.5C121.381 37.5 122.5 38.6193 122.5 40C122.5 41.3807 121.381 42.5 120 42.5C118.619 42.5 117.5 41.3807 117.5 40Z" fill="#565656" fill-rule="nonzero" opacity="1" stroke="none" vectornator:layerName="Oval 26"/>
<path d="M137.5 40C137.5 38.6193 138.619 37.5 140 37.5C141.381 37.5 142.5 38.6193 142.5 40C142.5 41.3807 141.381 42.5 140 42.5C138.619 42.5 137.5 41.3807 137.5 40Z" fill="#565656" fill-rule="nonzero" opacity="1" stroke="none" vectornator:layerName="Oval 27"/>
<path d="M157.5 40C157.5 38.6193 158.619 37.5 160 37.5C161.381 37.5 162.5 38.6193 162.5 40C162.5 41.3807 161.381 42.5 160 42.5C158.619 42.5 157.5 41.3807 157.5 40Z" fill="#565656" fill-rule="nonzero" opacity="1" stroke="none" vectornator:layerName="Oval 28"/>
<path d="M177.5 40C177.5 38.6193 178.619 37.5 180 37.5C181.381 37.5 182.5 38.6193 182.5 40C182.5 41.3807 181.381 42.5 180 42.5C178.619 42.5 177.5 41.3807 177.5 40Z" fill="#565656" fill-rule="nonzero" opacity="1" stroke="none" vectornator:layerName="Oval 29"/>
<path d="M197.5 40C197.5 38.6193 198.619 37.5 200 37.5C201.381 37.5 202.5 38.6193 202.5 40C202.5 41.3807 201.381 42.5 200 42.5C198.619 42.5 197.5 41.3807 197.5 40Z" fill="#565656" fill-rule="nonzero" opacity="1" stroke="none" vectornator:layerName="Oval 30"/>
<path d="M117.5 60C117.5 58.6193 118.619 57.5 120 57.5C121.381 57.5 122.5 58.6193 122.5 60C122.5 61.3807 121.381 62.5 120 62.5C118.619 62.5 117.5 61.3807 117.5 60Z" fill="#565656" fill-rule="nonzero" opacity="1" stroke="none" vectornator:layerName="Oval 31"/>
<path d="M137.5 60C137.5 58.6193 138.619 57.5 140 57.5C141.381 57.5 142.5 58.6193 142.5 60C142.5 61.3807 141.381 62.5 140 62.5C138.619 62.5 137.5 61.3807 137.5 60Z" fill="#565656" fill-rule="nonzero" opacity="1" stroke="none" vectornator:layerName="Oval 32"/>
<path d="M157.5 60C157.5 58.6193 158.619 57.5 160 57.5C161.381 57.5 162.5 58.6193 162.5 60C162.5 61.3807 161.381 62.5 160 62.5C158.619 62.5 157.5 61.3807 157.5 60Z" fill="#565656" fill-rule="nonzero" opacity="1" stroke="none" vectornator:layerName="Oval 33"/>
<path d="M177.5 60C177.5 58.6193 178.619 57.5 180 57.5C181.381 57.5 182.5 58.6193 182.5 60C182.5 61.3807 181.381 62.5 180 62.5C178.619 62.5 177.5 61.3807 177.5 60Z" fill="#565656" fill-rule="nonzero" opacity="1" stroke="none" vectornator:layerName="Oval 34"/>
<path d="M197.5 60C197.5 58.6193 198.619 57.5 200 57.5C201.381 57.5 202.5 58.6193 202.5 60C202.5 61.3807 201.381 62.5 200 62.5C198.619 62.5 197.5 61.3807 197.5 60Z" fill="#565656" fill-rule="nonzero" opacity="1" stroke="none" vectornator:layerName="Oval 35"/>
<path d="M117.5 80C117.5 78.6193 118.619 77.5 120 77.5C121.381 77.5 122.5 78.6193 122.5 80C122.5 81.3807 121.381 82.5 120 82.5C118.619 82.5 117.5 81.3807 117.5 80Z" fill="#565656" fill-rule="nonzero" opacity="1" stroke="none" vectornator:layerName="Oval 36"/>
<path d="M137.5 80C137.5 78.6193 138.619 77.5 140 77.5C141.381 77.5 142.5 78.6193 142.5 80C142.5 81.3807 141.381 82.5 140 82.5C138.619 82.5 137.5 81.3807 137.5 80Z" fill="#565656" fill-rule="nonzero" opacity="1" stroke="none" vectornator:layerName="Oval 37"/>
<path d="M157.5 80C157.5 78.6193 158.619 77.5 160 77.5C161.381 77.5 162.5 78.6193 162.5 80C162.5 81.3807 161.381 82.5 160 82.5C158.619 82.5 157.5 81.3807 157.5 80Z" fill="#565656" fill-rule="nonzero" opacity="1" stroke="none" vectornator:layerName="Oval 38"/>
<path d="M177.5 80C177.5 78.6193 178.619 77.5 180 77.5C181.381 77.5 182.5 78.6193 182.5 80C182.5 81.3807 181.381 82.5 180 82.5C178.619 82.5 177.5 81.3807 177.5 80Z" fill="#565656" fill-rule="nonzero" opacity="1" stroke="none" vectornator:layerName="Oval 39"/>
<path d="M197.5 80C197.5 78.6193 198.619 77.5 200 77.5C201.381 77.5 202.5 78.6193 202.5 80C202.5 81.3807 201.381 82.5 200 82.5C198.619 82.5 197.5 81.3807 197.5 80Z" fill="#565656" fill-rule="nonzero" opacity="1" stroke="none" vectornator:layerName="Oval 40"/>
<path d="M17.5 100C17.5 98.6193 18.6193 97.5 20 97.5C21.3807 97.5 22.5 98.6193 22.5 100C22.5 101.381 21.3807 102.5 20 102.5C18.6193 102.5 17.5 101.381 17.5 100Z" fill="#565656" fill-rule="nonzero" opacity="1" stroke="none" vectornator:layerName="Oval 41"/>
<path d="M37.5 100C37.5 98.6193 38.6193 97.5 40 97.5C41.3807 97.5 42.5 98.6193 42.5 100C42.5 101.381 41.3807 102.5 40 102.5C38.6193 102.5 37.5 101.381 37.5 100Z" fill="#565656" fill-rule="nonzero" opacity="1" stroke="none" vectornator:layerName="Oval 42"/>
<path d="M57.5 100C57.5 98.6193 58.6193 97.5 60 97.5C61.3807 97.5 62.5 98.6193 62.5 100C62.5 101.381 61.3807 102.5 60 102.5C58.6193 102.5 57.5 101.381 57.5 100Z" fill="#565656" fill-rule="nonzero" opacity="1" stroke="none" vectornator:layerName="Oval 43"/>
<path d="M77.5 100C77.5 98.6193 78.6193 97.5 80 97.5C81.3807 97.5 82.5 98.6193 82.5 100C82.5 101.381 81.3807 102.5 80 102.5C78.6193 102.5 77.5 101.381 77.5 100Z" fill="#565656" fill-rule="nonzero" opacity="1" stroke="none" vectornator:layerName="Oval 44"/>
<path d="M97.5 100C97.5 98.6193 98.6193 97.5 100 97.5C101.381 97.5 102.5 98.6193 102.5 100C102.5 101.381 101.381 102.5 100 102.5C98.6193 102.5 97.5 101.381 97.5 100Z" fill="#565656" fill-rule="nonzero" opacity="1" stroke="none" vectornator:layerName="Oval 45"/>
<path d="M17.5 120C17.5 118.619 18.6193 117.5 20 117.5C21.3807 117.5 22.5 118.619 22.5 120C22.5 121.381 21.3807 122.5 20 122.5C18.6193 122.5 17.5 121.381 17.5 120Z" fill="#565656" fill-rule="nonzero" opacity="1" stroke="none" vectornator:layerName="Oval 46"/>
<path d="M37.5 120C37.5 118.619 38.6193 117.5 40 117.5C41.3807 117.5 42.5 118.619 42.5 120C42.5 121.381 41.3807 122.5 40 122.5C38.6193 122.5 37.5 121.381 37.5 120Z" fill="#565656" fill-rule="nonzero" opacity="1" stroke="none" vectornator:layerName="Oval 47"/>
<path d="M57.5 120C57.5 118.619 58.6193 117.5 60 117.5C61.3807 117.5 62.5 118.619 62.5 120C62.5 121.381 61.3807 122.5 60 122.5C58.6193 122.5 57.5 121.381 57.5 120Z" fill="#565656" fill-rule="nonzero" opacity="1" stroke="none" vectornator:layerName="Oval 48"/>
<path d="M77.5 120C77.5 118.619 78.6193 117.5 80 117.5C81.3807 117.5 82.5 118.619 82.5 120C82.5 121.381 81.3807 122.5 80 122.5C78.6193 122.5 77.5 121.381 77.5 120Z" fill="#565656" fill-rule="nonzero" opacity="1" stroke="none" vectornator:layerName="Oval 49"/>
<path d="M97.5 120C97.5 118.619 98.6193 117.5 100 117.5C101.381 117.5 102.5 118.619 102.5 120C102.5 121.381 101.381 122.5 100 122.5C98.6193 122.5 97.5 121.381 97.5 120Z" fill="#565656" fill-rule="nonzero" opacity="1" stroke="none" vectornator:layerName="Oval 50"/>
<path d="M17.5 140C17.5 138.619 18.6193 137.5 20 137.5C21.3807 137.5 22.5 138.619 22.5 140C22.5 141.381 21.3807 142.5 20 142.5C18.6193 142.5 17.5 141.381 17.5 140Z" fill="#565656" fill-rule="nonzero" opacity="1" stroke="none" vectornator:layerName="Oval 51"/>
<path d="M37.5 140C37.5 138.619 38.6193 137.5 40 137.5C41.3807 137.5 42.5 138.619 42.5 140C42.5 141.381 41.3807 142.5 40 142.5C38.6193 142.5 37.5 141.381 37.5 140Z" fill="#565656" fill-rule="nonzero" opacity="1" stroke="none" vectornator:layerName="Oval 52"/>
<path d="M57.5 140C57.5 138.619 58.6193 137.5 60 137.5C61.3807 137.5 62.5 138.619 62.5 140C62.5 141.381 61.3807 142.5 60 142.5C58.6193 142.5 57.5 141.381 57.5 140Z" fill="#565656" fill-rule="nonzero" opacity="1" stroke="none" vectornator:layerName="Oval 53"/>
<path d="M77.5 140C77.5 138.619 78.6193 137.5 80 137.5C81.3807 137.5 82.5 138.619 82.5 140C82.5 141.381 81.3807 142.5 80 142.5C78.6193 142.5 77.5 141.381 77.5 140Z" fill="#565656" fill-rule="nonzero" opacity="1" stroke="none" vectornator:layerName="Oval 54"/>
<path d="M97.5 140C97.5 138.619 98.6193 137.5 100 137.5C101.381 137.5 102.5 138.619 102.5 140C102.5 141.381 101.381 142.5 100 142.5C98.6193 142.5 97.5 141.381 97.5 140Z" fill="#565656" fill-rule="nonzero" opacity="1" stroke="none" vectornator:layerName="Oval 55"/>
<path d="M17.5 160C17.5 158.619 18.6193 157.5 20 157.5C21.3807 157.5 22.5 158.619 22.5 160C22.5 161.381 21.3807 162.5 20 162.5C18.6193 162.5 17.5 161.381 17.5 160Z" fill="#565656" fill-rule="nonzero" opacity="1" stroke="none" vectornator:layerName="Oval 56"/>
<path d="M37.5 160C37.5 158.619 38.6193 157.5 40 157.5C41.3807 157.5 42.5 158.619 42.5 160C42.5 161.381 41.3807 162.5 40 162.5C38.6193 162.5 37.5 161.381 37.5 160Z" fill="#565656" fill-rule="nonzero" opacity="1" stroke="none" vectornator:layerName="Oval 57"/>
<path d="M57.5 160C57.5 158.619 58.6193 157.5 60 157.5C61.3807 157.5 62.5 158.619 62.5 160C62.5 161.381 61.3807 162.5 60 162.5C58.6193 162.5 57.5 161.381 57.5 160Z" fill="#565656" fill-rule="nonzero" opacity="1" stroke="none" vectornator:layerName="Oval 58"/>
<path d="M77.5 160C77.5 158.619 78.6193 157.5 80 157.5C81.3807 157.5 82.5 158.619 82.5 160C82.5 161.381 81.3807 162.5 80 162.5C78.6193 162.5 77.5 161.381 77.5 160Z" fill="#565656" fill-rule="nonzero" opacity="1" stroke="none" vectornator:layerName="Oval 59"/>
<path d="M97.5 160C97.5 158.619 98.6193 157.5 100 157.5C101.381 157.5 102.5 158.619 102.5 160C102.5 161.381 101.381 162.5 100 162.5C98.6193 162.5 97.5 161.381 97.5 160Z" fill="#565656" fill-rule="nonzero" opacity="1" stroke="none" vectornator:layerName="Oval 60"/>
<path d="M117.5 100C117.5 98.6193 118.619 97.5 120 97.5C121.381 97.5 122.5 98.6193 122.5 100C122.5 101.381 121.381 102.5 120 102.5C118.619 102.5 117.5 101.381 117.5 100Z" fill="#565656" fill-rule="nonzero" opacity="1" stroke="none" vectornator:layerName="Oval 61"/>
<path d="M137.5 100C137.5 98.6193 138.619 97.5 140 97.5C141.381 97.5 142.5 98.6193 142.5 100C142.5 101.381 141.381 102.5 140 102.5C138.619 102.5 137.5 101.381 137.5 100Z" fill="#565656" fill-rule="nonzero" opacity="1" stroke="none" vectornator:layerName="Oval 62"/>
<path d="M157.5 100C157.5 98.6193 158.619 97.5 160 97.5C161.381 97.5 162.5 98.6193 162.5 100C162.5 101.381 161.381 102.5 160 102.5C158.619 102.5 157.5 101.381 157.5 100Z" fill="#565656" fill-rule="nonzero" opacity="1" stroke="none" vectornator:layerName="Oval 63"/>
<path d="M177.5 100C177.5 98.6193 178.619 97.5 180 97.5C181.381 97.5 182.5 98.6193 182.5 100C182.5 101.381 181.381 102.5 180 102.5C178.619 102.5 177.5 101.381 177.5 100Z" fill="#565656" fill-rule="nonzero" opacity="1" stroke="none" vectornator:layerName="Oval 64"/>
<path d="M197.5 100C197.5 98.6193 198.619 97.5 200 97.5C201.381 97.5 202.5 98.6193 202.5 100C202.5 101.381 201.381 102.5 200 102.5C198.619 102.5 197.5 101.381 197.5 100Z" fill="#565656" fill-rule="nonzero" opacity="1" stroke="none" vectornator:layerName="Oval 65"/>
<path d="M117.5 120C117.5 118.619 118.619 117.5 120 117.5C121.381 117.5 122.5 118.619 122.5 120C122.5 121.381 121.381 122.5 120 122.5C118.619 122.5 117.5 121.381 117.5 120Z" fill="#565656" fill-rule="nonzero" opacity="1" stroke="none" vectornator:layerName="Oval 66"/>
<path d="M137.5 120C137.5 118.619 138.619 117.5 140 117.5C141.381 117.5 142.5 118.619 142.5 120C142.5 121.381 141.381 122.5 140 122.5C138.619 122.5 137.5 121.381 137.5 120Z" fill="#565656" fill-rule="nonzero" opacity="1" stroke="none" vectornator:layerName="Oval 67"/>
<path d="M157.5 120C157.5 118.619 158.619 117.5 160 117.5C161.381 117.5 162.5 118.619 162.5 120C162.5 121.381 161.381 122.5 160 122.5C158.619 122.5 157.5 121.381 157.5 120Z" fill="#565656" fill-rule="nonzero" opacity="1" stroke="none" vectornator:layerName="Oval 68"/>
<path d="M177.5 120C177.5 118.619 178.619 117.5 180 117.5C181.381 117.5 182.5 118.619 182.5 120C182.5 121.381 181.381 122.5 180 122.5C178.619 122.5 177.5 121.381 177.5 120Z" fill="#565656" fill-rule="nonzero" opacity="1" stroke="none" vectornator:layerName="Oval 69"/>
<path d="M197.5 120C197.5 118.619 198.619 117.5 200 117.5C201.381 117.5 202.5 118.619 202.5 120C202.5 121.381 201.381 122.5 200 122.5C198.619 122.5 197.5 121.381 197.5 120Z" fill="#565656" fill-rule="nonzero" opacity="1" stroke="none" vectornator:layerName="Oval 70"/>
<path d="M117.5 140C117.5 138.619 118.619 137.5 120 137.5C121.381 137.5 122.5 138.619 122.5 140C122.5 141.381 121.381 142.5 120 142.5C118.619 142.5 117.5 141.381 117.5 140Z" fill="#565656" fill-rule="nonzero" opacity="1" stroke="none" vectornator:layerName="Oval 71"/>
<path d="M137.5 140C137.5 138.619 138.619 137.5 140 137.5C141.381 137.5 142.5 138.619 142.5 140C142.5 141.381 141.381 142.5 140 142.5C138.619 142.5 137.5 141.381 137.5 140Z" fill="#565656" fill-rule="nonzero" opacity="1" stroke="none" vectornator:layerName="Oval 72"/>
<path d="M157.5 140C157.5 138.619 158.619 137.5 160 137.5C161.381 137.5 162.5 138.619 162.5 140C162.5 141.381 161.381 142.5 160 142.5C158.619 142.5 157.5 141.381 157.5 140Z" fill="#565656" fill-rule="nonzero" opacity="1" stroke="none" vectornator:layerName="Oval 73"/>
<path d="M177.5 140C177.5 138.619 178.619 137.5 180 137.5C181.381 137.5 182.5 138.619 182.5 140C182.5 141.381 181.381 142.5 180 142.5C178.619 142.5 177.5 141.381 177.5 140Z" fill="#565656" fill-rule="nonzero" opacity="1" stroke="none" vectornator:layerName="Oval 74"/>
<path d="M197.5 140C197.5 138.619 198.619 137.5 200 137.5C201.381 137.5 202.5 138.619 202.5 140C202.5 141.381 201.381 142.5 200 142.5C198.619 142.5 197.5 141.381 197.5 140Z" fill="#565656" fill-rule="nonzero" opacity="1" stroke="none" vectornator:layerName="Oval 75"/>
<path d="M117.5 160C117.5 158.619 118.619 157.5 120 157.5C121.381 157.5 122.5 158.619 122.5 160C122.5 161.381 121.381 162.5 120 162.5C118.619 162.5 117.5 161.381 117.5 160Z" fill="#565656" fill-rule="nonzero" opacity="1" stroke="none" vectornator:layerName="Oval 76"/>
<path d="M137.5 160C137.5 158.619 138.619 157.5 140 157.5C141.381 157.5 142.5 158.619 142.5 160C142.5 161.381 141.381 162.5 140 162.5C138.619 162.5 137.5 161.381 137.5 160Z" fill="#565656" fill-rule="nonzero" opacity="1" stroke="none" vectornator:layerName="Oval 77"/>
<path d="M157.5 160C157.5 158.619 158.619 157.5 160 157.5C161.381 157.5 162.5 158.619 162.5 160C162.5 161.381 161.381 162.5 160 162.5C158.619 162.5 157.5 161.381 157.5 160Z" fill="#565656" fill-rule="nonzero" opacity="1" stroke="none" vectornator:layerName="Oval 78"/>
<path d="M177.5 160C177.5 158.619 178.619 157.5 180 157.5C181.381 157.5 182.5 158.619 182.5 160C182.5 161.381 181.381 162.5 180 162.5C178.619 162.5 177.5 161.381 177.5 160Z" fill="#565656" fill-rule="nonzero" opacity="1" stroke="none" vectornator:layerName="Oval 79"/>
<path d="M197.5 160C197.5 158.619 198.619 157.5 200 157.5C201.381 157.5 202.5 158.619 202.5 160C202.5 161.381 201.381 162.5 200 162.5C198.619 162.5 197.5 161.381 197.5 160Z" fill="#565656" fill-rule="nonzero" opacity="1" stroke="none" vectornator:layerName="Oval 80"/>
<path d="M17.5 180C17.5 178.619 18.6193 177.5 20 177.5C21.3807 177.5 22.5 178.619 22.5 180C22.5 181.381 21.3807 182.5 20 182.5C18.6193 182.5 17.5 181.381 17.5 180Z" fill="#565656" fill-rule="nonzero" opacity="1" stroke="none" vectornator:layerName="Oval 81"/>
<path d="M37.5 180C37.5 178.619 38.6193 177.5 40 177.5C41.3807 177.5 42.5 178.619 42.5 180C42.5 181.381 41.3807 182.5 40 182.5C38.6193 182.5 37.5 181.381 37.5 180Z" fill="#565656" fill-rule="nonzero" opacity="1" stroke="none" vectornator:layerName="Oval 82"/>
<path d="M57.5 180C57.5 178.619 58.6193 177.5 60 177.5C61.3807 177.5 62.5 178.619 62.5 180C62.5 181.381 61.3807 182.5 60 182.5C58.6193 182.5 57.5 181.381 57.5 180Z" fill="#565656" fill-rule="nonzero" opacity="1" stroke="none" vectornator:layerName="Oval 83"/>
<path d="M77.5 180C77.5 178.619 78.6193 177.5 80 177.5C81.3807 177.5 82.5 178.619 82.5 180C82.5 181.381 81.3807 182.5 80 182.5C78.6193 182.5 77.5 181.381 77.5 180Z" fill="#565656" fill-rule="nonzero" opacity="1" stroke="none" vectornator:layerName="Oval 84"/>
<path d="M97.5 180C97.5 178.619 98.6193 177.5 100 177.5C101.381 177.5 102.5 178.619 102.5 180C102.5 181.381 101.381 182.5 100 182.5C98.6193 182.5 97.5 181.381 97.5 180Z" fill="#565656" fill-rule="nonzero" opacity="1" stroke="none" vectornator:layerName="Oval 85"/>
<path d="M17.5 200C17.5 198.619 18.6193 197.5 20 197.5C21.3807 197.5 22.5 198.619 22.5 200C22.5 201.381 21.3807 202.5 20 202.5C18.6193 202.5 17.5 201.381 17.5 200Z" fill="#565656" fill-rule="nonzero" opacity="1" stroke="none" vectornator:layerName="Oval 86"/>
<path d="M37.5 200C37.5 198.619 38.6193 197.5 40 197.5C41.3807 197.5 42.5 198.619 42.5 200C42.5 201.381 41.3807 202.5 40 202.5C38.6193 202.5 37.5 201.381 37.5 200Z" fill="#565656" fill-rule="nonzero" opacity="1" stroke="none" vectornator:layerName="Oval 87"/>
<path d="M57.5 200C57.5 198.619 58.6193 197.5 60 197.5C61.3807 197.5 62.5 198.619 62.5 200C62.5 201.381 61.3807 202.5 60 202.5C58.6193 202.5 57.5 201.381 57.5 200Z" fill="#565656" fill-rule="nonzero" opacity="1" stroke="none" vectornator:layerName="Oval 88"/>
<path d="M77.5 200C77.5 198.619 78.6193 197.5 80 197.5C81.3807 197.5 82.5 198.619 82.5 200C82.5 201.381 81.3807 202.5 80 202.5C78.6193 202.5 77.5 201.381 77.5 200Z" fill="#565656" fill-rule="nonzero" opacity="1" stroke="none" vectornator:layerName="Oval 89"/>
<path d="M97.5 200C97.5 198.619 98.6193 197.5 100 197.5C101.381 197.5 102.5 198.619 102.5 200C102.5 201.381 101.381 202.5 100 202.5C98.6193 202.5 97.5 201.381 97.5 200Z" fill="#565656" fill-rule="nonzero" opacity="1" stroke="none" vectornator:layerName="Oval 90"/>
<path d="M17.5 220C17.5 218.619 18.6193 217.5 20 217.5C21.3807 217.5 22.5 218.619 22.5 220C22.5 221.381 21.3807 222.5 20 222.5C18.6193 222.5 17.5 221.381 17.5 220Z" fill="#565656" fill-rule="nonzero" opacity="1" stroke="none" vectornator:layerName="Oval 91"/>
<path d="M37.5 220C37.5 218.619 38.6193 217.5 40 217.5C41.3807 217.5 42.5 218.619 42.5 220C42.5 221.381 41.3807 222.5 40 222.5C38.6193 222.5 37.5 221.381 37.5 220Z" fill="#565656" fill-rule="nonzero" opacity="1" stroke="none" vectornator:layerName="Oval 92"/>
<path d="M57.5 220C57.5 218.619 58.6193 217.5 60 217.5C61.3807 217.5 62.5 218.619 62.5 220C62.5 221.381 61.3807 222.5 60 222.5C58.6193 222.5 57.5 221.381 57.5 220Z" fill="#565656" fill-rule="nonzero" opacity="1" stroke="none" vectornator:layerName="Oval 93"/>
<path d="M77.5 220C77.5 218.619 78.6193 217.5 80 217.5C81.3807 217.5 82.5 218.619 82.5 220C82.5 221.381 81.3807 222.5 80 222.5C78.6193 222.5 77.5 221.381 77.5 220Z" fill="#565656" fill-rule="nonzero" opacity="1" stroke="none" vectornator:layerName="Oval 94"/>
<path d="M97.5 220C97.5 218.619 98.6193 217.5 100 217.5C101.381 217.5 102.5 218.619 102.5 220C102.5 221.381 101.381 222.5 100 222.5C98.6193 222.5 97.5 221.381 97.5 220Z" fill="#565656" fill-rule="nonzero" opacity="1" stroke="none" vectornator:layerName="Oval 95"/>
<path d="M17.5 240C17.5 238.619 18.6193 237.5 20 237.5C21.3807 237.5 22.5 238.619 22.5 240C22.5 241.381 21.3807 242.5 20 242.5C18.6193 242.5 17.5 241.381 17.5 240Z" fill="#565656" fill-rule="nonzero" opacity="1" stroke="none" vectornator:layerName="Oval 96"/>
<path d="M37.5 240C37.5 238.619 38.6193 237.5 40 237.5C41.3807 237.5 42.5 238.619 42.5 240C42.5 241.381 41.3807 242.5 40 242.5C38.6193 242.5 37.5 241.381 37.5 240Z" fill="#565656" fill-rule="nonzero" opacity="1" stroke="none" vectornator:layerName="Oval 97"/>
<path d="M57.5 240C57.5 238.619 58.6193 237.5 60 237.5C61.3807 237.5 62.5 238.619 62.5 240C62.5 241.381 61.3807 242.5 60 242.5C58.6193 242.5 57.5 241.381 57.5 240Z" fill="#565656" fill-rule="nonzero" opacity="1" stroke="none" vectornator:layerName="Oval 98"/>
<path d="M77.5 240C77.5 238.619 78.6193 237.5 80 237.5C81.3807 237.5 82.5 238.619 82.5 240C82.5 241.381 81.3807 242.5 80 242.5C78.6193 242.5 77.5 241.381 77.5 240Z" fill="#565656" fill-rule="nonzero" opacity="1" stroke="none" vectornator:layerName="Oval 99"/>
<path d="M97.5 240C97.5 238.619 98.6193 237.5 100 237.5C101.381 237.5 102.5 238.619 102.5 240C102.5 241.381 101.381 242.5 100 242.5C98.6193 242.5 97.5 241.381 97.5 240Z" fill="#565656" fill-rule="nonzero" opacity="1" stroke="none" vectornator:layerName="Oval 100"/>
<path d="M117.5 180C117.5 178.619 118.619 177.5 120 177.5C121.381 177.5 122.5 178.619 122.5 180C122.5 181.381 121.381 182.5 120 182.5C118.619 182.5 117.5 181.381 117.5 180Z" fill="#565656" fill-rule="nonzero" opacity="1" stroke="none" vectornator:layerName="Oval 101"/>
<path d="M137.5 180C137.5 178.619 138.619 177.5 140 177.5C141.381 177.5 142.5 178.619 142.5 180C142.5 181.381 141.381 182.5 140 182.5C138.619 182.5 137.5 181.381 137.5 180Z" fill="#565656" fill-rule="nonzero" opacity="1" stroke="none" vectornator:layerName="Oval 102"/>
<path d="M157.5 180C157.5 178.619 158.619 177.5 160 177.5C161.381 177.5 162.5 178.619 162.5 180C162.5 181.381 161.381 182.5 160 182.5C158.619 182.5 157.5 181.381 157.5 180Z" fill="#565656" fill-rule="nonzero" opacity="1" stroke="none" vectornator:layerName="Oval 103"/>
<path d="M177.5 180C177.5 178.619 178.619 177.5 180 177.5C181.381 177.5 182.5 178.619 182.5 180C182.5 181.381 181.381 182.5 180 182.5C178.619 182.5 177.5 181.381 177.5 180Z" fill="#565656" fill-rule="nonzero" opacity="1" stroke="none" vectornator:layerName="Oval 104"/>
<path d="M197.5 180C197.5 178.619 198.619 177.5 200 177.5C201.381 177.5 202.5 178.619 202.5 180C202.5 181.381 201.381 182.5 200 182.5C198.619 182.5 197.5 181.381 197.5 180Z" fill="#565656" fill-rule="nonzero" opacity="1" stroke="none" vectornator:layerName="Oval 105"/>
<path d="M117.5 200C117.5 198.619 118.619 197.5 120 197.5C121.381 197.5 122.5 198.619 122.5 200C122.5 201.381 121.381 202.5 120 202.5C118.619 202.5 117.5 201.381 117.5 200Z" fill="#565656" fill-rule="nonzero" opacity="1" stroke="none" vectornator:layerName="Oval 106"/>
<path d="M137.5 200C137.5 198.619 138.619 197.5 140 197.5C141.381 197.5 142.5 198.619 142.5 200C142.5 201.381 141.381 202.5 140 202.5C138.619 202.5 137.5 201.381 137.5 200Z" fill="#565656" fill-rule="nonzero" opacity="1" stroke="none" vectornator:layerName="Oval 107"/>
<path d="M157.5 200C157.5 198.619 158.619 197.5 160 197.5C161.381 197.5 162.5 198.619 162.5 200C162.5 201.381 161.381 202.5 160 202.5C158.619 202.5 157.5 201.381 157.5 200Z" fill="#565656" fill-rule="nonzero" opacity="1" stroke="none" vectornator:layerName="Oval 108"/>
<path d="M177.5 200C177.5 198.619 178.619 197.5 180 197.5C181.381 197.5 182.5 198.619 182.5 200C182.5 201.381 181.381 202.5 180 202.5C178.619 202.5 177.5 201.381 177.5 200Z" fill="#565656" fill-rule="nonzero" opacity="1" stroke="none" vectornator:layerName="Oval 109"/>
<path d="M197.5 200C197.5 198.619 198.619 197.5 200 197.5C201.381 197.5 202.5 198.619 202.5 200C202.5 201.381 201.381 202.5 200 202.5C198.619 202.5 197.5 201.381 197.5 200Z" fill="#565656" fill-rule="nonzero" opacity="1" stroke="none" vectornator:layerName="Oval 110"/>
<path d="M117.5 220C117.5 218.619 118.619 217.5 120 217.5C121.381 217.5 122.5 218.619 122.5 220C122.5 221.381 121.381 222.5 120 222.5C118.619 222.5 117.5 221.381 117.5 220Z" fill="#565656" fill-rule="nonzero" opacity="1" stroke="none" vectornator:layerName="Oval 111"/>
<path d="M137.5 220C137.5 218.619 138.619 217.5 140 217.5C141.381 217.5 142.5 218.619 142.5 220C142.5 221.381 141.381 222.5 140 222.5C138.619 222.5 137.5 221.381 137.5 220Z" fill="#565656" fill-rule="nonzero" opacity="1" stroke="none" vectornator:layerName="Oval 112"/>
<path d="M157.5 220C157.5 218.619 158.619 217.5 160 217.5C161.381 217.5 162.5 218.619 162.5 220C162.5 221.381 161.381 222.5 160 222.5C158.619 222.5 157.5 221.381 157.5 220Z" fill="#565656" fill-rule="nonzero" opacity="1" stroke="none" vectornator:layerName="Oval 113"/>
<path d="M177.5 220C177.5 218.619 178.619 217.5 180 217.5C181.381 217.5 182.5 218.619 182.5 220C182.5 221.381 181.381 222.5 180 222.5C178.619 222.5 177.5 221.381 177.5 220Z" fill="#565656" fill-rule="nonzero" opacity="1" stroke="none" vectornator:layerName="Oval 114"/>
<path d="M197.5 220C197.5 218.619 198.619 217.5 200 217.5C201.381 217.5 202.5 218.619 202.5 220C202.5 221.381 201.381 222.5 200 222.5C198.619 222.5 197.5 221.381 197.5 220Z" fill="#565656" fill-rule="nonzero" opacity="1" stroke="none" vectornator:layerName="Oval 115"/>
<path d="M117.5 240C117.5 238.619 118.619 237.5 120 237.5C121.381 237.5 122.5 238.619 122.5 240C122.5 241.381 121.381 242.5 120 242.5C118.619 242.5 117.5 241.381 117.5 240Z" fill="#565656" fill-rule="nonzero" opacity="1" stroke="none" vectornator:layerName="Oval 116"/>
<path d="M137.5 240C137.5 238.619 138.619 237.5 140 237.5C141.381 237.5 142.5 238.619 142.5 240C142.5 241.381 141.381 242.5 140 242.5C138.619 242.5 137.5 241.381 137.5 240Z" fill="#565656" fill-rule="nonzero" opacity="1" stroke="none" vectornator:layerName="Oval 117"/>
<path d="M157.5 240C157.5 238.619 158.619 237.5 160 237.5C161.381 237.5 162.5 238.619 162.5 240C162.5 241.381 161.381 242.5 160 242.5C158.619 242.5 157.5 241.381 157.5 240Z" fill="#565656" fill-rule="nonzero" opacity="1" stroke="none" vectornator:layerName="Oval 118"/>
<path d="M177.5 240C177.5 238.619 178.619 237.5 180 237.5C181.381 237.5 182.5 238.619 182.5 240C182.5 241.381 181.381 242.5 180 242.5C178.619 242.5 177.5 241.381 177.5 240Z" fill="#565656" fill-rule="nonzero" opacity="1" stroke="none" vectornator:layerName="Oval 119"/>
<path d="M197.5 240C197.5 238.619 198.619 237.5 200 237.5C201.381 237.5 202.5 238.619 202.5 240C202.5 241.381 201.381 242.5 200 242.5C198.619 242.5 197.5 241.381 197.5 240Z" fill="#565656" fill-rule="nonzero" opacity="1" stroke="none" vectornator:layerName="Oval 120"/>
<path d="M17.5 260C17.5 258.619 18.6193 257.5 20 257.5C21.3807 257.5 22.5 258.619 22.5 260C22.5 261.381 21.3807 262.5 20 262.5C18.6193 262.5 17.5 261.381 17.5 260Z" fill="#565656" fill-rule="nonzero" opacity="1" stroke="none" vectornator:layerName="Oval 121"/>
<path d="M37.5 260C37.5 258.619 38.6193 257.5 40 257.5C41.3807 257.5 42.5 258.619 42.5 260C42.5 261.381 41.3807 262.5 40 262.5C38.6193 262.5 37.5 261.381 37.5 260Z" fill="#565656" fill-rule="nonzero" opacity="1" stroke="none" vectornator:layerName="Oval 122"/>
<path d="M57.5 260C57.5 258.619 58.6193 257.5 60 257.5C61.3807 257.5 62.5 258.619 62.5 260C62.5 261.381 61.3807 262.5 60 262.5C58.6193 262.5 57.5 261.381 57.5 260Z" fill="#565656" fill-rule="nonzero" opacity="1" stroke="none" vectornator:layerName="Oval 123"/>
<path d="M77.5 260C77.5 258.619 78.6193 257.5 80 257.5C81.3807 257.5 82.5 258.619 82.5 260C82.5 261.381 81.3807 262.5 80 262.5C78.6193 262.5 77.5 261.381 77.5 260Z" fill="#565656" fill-rule="nonzero" opacity="1" stroke="none" vectornator:layerName="Oval 124"/>
<path d="M97.5 260C97.5 258.619 98.6193 257.5 100 257.5C101.381 257.5 102.5 258.619 102.5 260C102.5 261.381 101.381 262.5 100 262.5C98.6193 262.5 97.5 261.381 97.5 260Z" fill="#565656" fill-rule="nonzero" opacity="1" stroke="none" vectornator:layerName="Oval 125"/>
<path d="M17.5 280C17.5 278.619 18.6193 277.5 20 277.5C21.3807 277.5 22.5 278.619 22.5 280C22.5 281.381 21.3807 282.5 20 282.5C18.6193 282.5 17.5 281.381 17.5 280Z" fill="#565656" fill-rule="nonzero" opacity="1" stroke="none" vectornator:layerName="Oval 126"/>
<path d="M37.5 280C37.5 278.619 38.6193 277.5 40 277.5C41.3807 277.5 42.5 278.619 42.5 280C42.5 281.381 41.3807 282.5 40 282.5C38.6193 282.5 37.5 281.381 37.5 280Z" fill="#565656" fill-rule="nonzero" opacity="1" stroke="none" vectornator:layerName="Oval 127"/>
<path d="M57.5 280C57.5 278.619 58.6193 277.5 60 277.5C61.3807 277.5 62.5 278.619 62.5 280C62.5 281.381 61.3807 282.5 60 282.5C58.6193 282.5 57.5 281.381 57.5 280Z" fill="#565656" fill-rule="nonzero" opacity="1" stroke="none" vectornator:layerName="Oval 128"/>
<path d="M77.5 280C77.5 278.619 78.6193 277.5 80 277.5C81.3807 277.5 82.5 278.619 82.5 280C82.5 281.381 81.3807 282.5 80 282.5C78.6193 282.5 77.5 281.381 77.5 280Z" fill="#565656" fill-rule="nonzero" opacity="1" stroke="none" vectornator:layerName="Oval 129"/>
<path d="M97.5 280C97.5 278.619 98.6193 277.5 100 277.5C101.381 277.5 102.5 278.619 102.5 280C102.5 281.381 101.381 282.5 100 282.5C98.6193 282.5 97.5 281.381 97.5 280Z" fill="#565656" fill-rule="nonzero" opacity="1" stroke="none" vectornator:layerName="Oval 130"/>
<path d="M17.5 300C17.5 298.619 18.6193 297.5 20 297.5C21.3807 297.5 22.5 298.619 22.5 300C22.5 301.381 21.3807 302.5 20 302.5C18.6193 302.5 17.5 301.381 17.5 300Z" fill="#565656" fill-rule="nonzero" opacity="1" stroke="none" vectornator:layerName="Oval 131"/>
<path d="M37.5 300C37.5 298.619 38.6193 297.5 40 297.5C41.3807 297.5 42.5 298.619 42.5 300C42.5 301.381 41.3807 302.5 40 302.5C38.6193 302.5 37.5 301.381 37.5 300Z" fill="#565656" fill-rule="nonzero" opacity="1" stroke="none" vectornator:layerName="Oval 132"/>
<path d="M57.5 300C57.5 298.619 58.6193 297.5 60 297.5C61.3807 297.5 62.5 298.619 62.5 300C62.5 301.381 61.3807 302.5 60 302.5C58.6193 302.5 57.5 301.381 57.5 300Z" fill="#565656" fill-rule="nonzero" opacity="1" stroke="none" vectornator:layerName="Oval 133"/>
<path d="M77.5 300C77.5 298.619 78.6193 297.5 80 297.5C81.3807 297.5 82.5 298.619 82.5 300C82.5 301.381 81.3807 302.5 80 302.5C78.6193 302.5 77.5 301.381 77.5 300Z" fill="#565656" fill-rule="nonzero" opacity="1" stroke="none" vectornator:layerName="Oval 134"/>
<path d="M97.5 300C97.5 298.619 98.6193 297.5 100 297.5C101.381 297.5 102.5 298.619 102.5 300C102.5 301.381 101.381 302.5 100 302.5C98.6193 302.5 97.5 301.381 97.5 300Z" fill="#565656" fill-rule="nonzero" opacity="1" stroke="none" vectornator:layerName="Oval 135"/>
<path d="M17.5 320C17.5 318.619 18.6193 317.5 20 317.5C21.3807 317.5 22.5 318.619 22.5 320C22.5 321.381 21.3807 322.5 20 322.5C18.6193 322.5 17.5 321.381 17.5 320Z" fill="#565656" fill-rule="nonzero" opacity="1" stroke="none" vectornator:layerName="Oval 136"/>
<path d="M37.5 320C37.5 318.619 38.6193 317.5 40 317.5C41.3807 317.5 42.5 318.619 42.5 320C42.5 321.381 41.3807 322.5 40 322.5C38.6193 322.5 37.5 321.381 37.5 320Z" fill="#565656" fill-rule="nonzero" opacity="1" stroke="none" vectornator:layerName="Oval 137"/>
<path d="M57.5 320C57.5 318.619 58.6193 317.5 60 317.5C61.3807 317.5 62.5 318.619 62.5 320C62.5 321.381 61.3807 322.5 60 322.5C58.6193 322.5 57.5 321.381 57.5 320Z" fill="#565656" fill-rule="nonzero" opacity="1" stroke="none" vectornator:layerName="Oval 138"/>
<path d="M77.5 320C77.5 318.619 78.6193 317.5 80 317.5C81.3807 317.5 82.5 318.619 82.5 320C82.5 321.381 81.3807 322.5 80 322.5C78.6193 322.5 77.5 321.381 77.5 320Z" fill="#565656" fill-rule="nonzero" opacity="1" stroke="none" vectornator:layerName="Oval 139"/>
<path d="M97.5 320C97.5 318.619 98.6193 317.5 100 317.5C101.381 317.5 102.5 318.619 102.5 320C102.5 321.381 101.381 322.5 100 322.5C98.6193 322.5 97.5 321.381 97.5 320Z" fill="#565656" fill-rule="nonzero" opacity="1" stroke="none" vectornator:layerName="Oval 140"/>
<path d="M117.5 260C117.5 258.619 118.619 257.5 120 257.5C121.381 257.5 122.5 258.619 122.5 260C122.5 261.381 121.381 262.5 120 262.5C118.619 262.5 117.5 261.381 117.5 260Z" fill="#565656" fill-rule="nonzero" opacity="1" stroke="none" vectornator:layerName="Oval 141"/>
<path d="M137.5 260C137.5 258.619 138.619 257.5 140 257.5C141.381 257.5 142.5 258.619 142.5 260C142.5 261.381 141.381 262.5 140 262.5C138.619 262.5 137.5 261.381 137.5 260Z" fill="#565656" fill-rule="nonzero" opacity="1" stroke="none" vectornator:layerName="Oval 142"/>
<path d="M157.5 260C157.5 258.619 158.619 257.5 160 257.5C161.381 257.5 162.5 258.619 162.5 260C162.5 261.381 161.381 262.5 160 262.5C158.619 262.5 157.5 261.381 157.5 260Z" fill="#565656" fill-rule="nonzero" opacity="1" stroke="none" vectornator:layerName="Oval 143"/>
<path d="M177.5 260C177.5 258.619 178.619 257.5 180 257.5C181.381 257.5 182.5 258.619 182.5 260C182.5 261.381 181.381 262.5 180 262.5C178.619 262.5 177.5 261.381 177.5 260Z" fill="#565656" fill-rule="nonzero" opacity="1" stroke="none" vectornator:layerName="Oval 144"/>
<path d="M197.5 260C197.5 258.619 198.619 257.5 200 257.5C201.381 257.5 202.5 258.619 202.5 260C202.5 261.381 201.381 262.5 200 262.5C198.619 262.5 197.5 261.381 197.5 260Z" fill="#565656" fill-rule="nonzero" opacity="1" stroke="none" vectornator:layerName="Oval 145"/>
<path d="M117.5 280C117.5 278.619 118.619 277.5 120 277.5C121.381 277.5 122.5 278.619 122.5 280C122.5 281.381 121.381 282.5 120 282.5C118.619 282.5 117.5 281.381 117.5 280Z" fill="#565656" fill-rule="nonzero" opacity="1" stroke="none" vectornator:layerName="Oval 146"/>
<path d="M137.5 280C137.5 278.619 138.619 277.5 140 277.5C141.381 277.5 142.5 278.619 142.5 280C142.5 281.381 141.381 282.5 140 282.5C138.619 282.5 137.5 281.381 137.5 280Z" fill="#565656" fill-rule="nonzero" opacity="1" stroke="none" vectornator:layerName="Oval 147"/>
<path d="M157.5 280C157.5 278.619 158.619 277.5 160 277.5C161.381 277.5 162.5 278.619 162.5 280C162.5 281.381 161.381 282.5 160 282.5C158.619 282.5 157.5 281.381 157.5 280Z" fill="#565656" fill-rule="nonzero" opacity="1" stroke="none" vectornator:layerName="Oval 148"/>
<path d="M177.5 280C177.5 278.619 178.619 277.5 180 277.5C181.381 277.5 182.5 278.619 182.5 280C182.5 281.381 181.381 282.5 180 282.5C178.619 282.5 177.5 281.381 177.5 280Z" fill="#565656" fill-rule="nonzero" opacity="1" stroke="none" vectornator:layerName="Oval 149"/>
<path d="M197.5 280C197.5 278.619 198.619 277.5 200 277.5C201.381 277.5 202.5 278.619 202.5 280C202.5 281.381 201.381 282.5 200 282.5C198.619 282.5 197.5 281.381 197.5 280Z" fill="#565656" fill-rule="nonzero" opacity="1" stroke="none" vectornator:layerName="Oval 150"/>
<path d="M117.5 300C117.5 298.619 118.619 297.5 120 297.5C121.381 297.5 122.5 298.619 122.5 300C122.5 301.381 121.381 302.5 120 302.5C118.619 302.5 117.5 301.381 117.5 300Z" fill="#565656" fill-rule="nonzero" opacity="1" stroke="none" vectornator:layerName="Oval 151"/>
<path d="M137.5 300C137.5 298.619 138.619 297.5 140 297.5C141.381 297.5 142.5 298.619 142.5 300C142.5 301.381 141.381 302.5 140 302.5C138.619 302.5 137.5 301.381 137.5 300Z" fill="#565656" fill-rule="nonzero" opacity="1" stroke="none" vectornator:layerName="Oval 152"/>
<path d="M157.5 300C157.5 298.619 158.619 297.5 160 297.5C161.381 297.5 162.5 298.619 162.5 300C162.5 301.381 161.381 302.5 160 302.5C158.619 302.5 157.5 301.381 157.5 300Z" fill="#565656" fill-rule="nonzero" opacity="1" stroke="none" vectornator:layerName="Oval 153"/>
<path d="M177.5 300C177.5 298.619 178.619 297.5 180 297.5C181.381 297.5 182.5 298.619 182.5 300C182.5 301.381 181.381 302.5 180 302.5C178.619 302.5 177.5 301.381 177.5 300Z" fill="#565656" fill-rule="nonzero" opacity="1" stroke="none" vectornator:layerName="Oval 154"/>
<path d="M197.5 300C197.5 298.619 198.619 297.5 200 297.5C201.381 297.5 202.5 298.619 202.5 300C202.5 301.381 201.381 302.5 200 302.5C198.619 302.5 197.5 301.381 197.5 300Z" fill="#565656" fill-rule="nonzero" opacity="1" stroke="none" vectornator:layerName="Oval 155"/>
<path d="M117.5 320C117.5 318.619 118.619 317.5 120 317.5C121.381 317.5 122.5 318.619 122.5 320C122.5 321.381 121.381 322.5 120 322.5C118.619 322.5 117.5 321.381 117.5 320Z" fill="#565656" fill-rule="nonzero" opacity="1" stroke="none" vectornator:layerName="Oval 156"/>
<path d="M137.5 320C137.5 318.619 138.619 317.5 140 317.5C141.381 317.5 142.5 318.619 142.5 320C142.5 321.381 141.381 322.5 140 322.5C138.619 322.5 137.5 321.381 137.5 320Z" fill="#565656" fill-rule="nonzero" opacity="1" stroke="none" vectornator:layerName="Oval 157"/>
<path d="M157.5 320C157.5 318.619 158.619 317.5 160 317.5C161.381 317.5 162.5 318.619 162.5 320C162.5 321.381 161.381 322.5 160 322.5C158.619 322.5 157.5 321.381 157.5 320Z" fill="#565656" fill-rule="nonzero" opacity="1" stroke="none" vectornator:layerName="Oval 158"/>
<path d="M177.5 320C177.5 318.619 178.619 317.5 180 317.5C181.381 317.5 182.5 318.619 182.5 320C182.5 321.381 181.381 322.5 180 322.5C178.619 322.5 177.5 321.381 177.5 320Z" fill="#565656" fill-rule="nonzero" opacity="1" stroke="none" vectornator:layerName="Oval 159"/>
<path d="M197.5 320C197.5 318.619 198.619 317.5 200 317.5C201.381 317.5 202.5 318.619 202.5 320C202.5 321.381 201.381 322.5 200 322.5C198.619 322.5 197.5 321.381 197.5 320Z" fill="#565656" fill-rule="nonzero" opacity="1" stroke="none" vectornator:layerName="Oval 160"/>
<path d="M217.5 20C217.5 18.6193 218.619 17.5 220 17.5C221.381 17.5 222.5 18.6193 222.5 20C222.5 21.3807 221.381 22.5 220 22.5C218.619 22.5 217.5 21.3807 217.5 20Z" fill="#565656" fill-rule="nonzero" opacity="1" stroke="none" vectornator:layerName="Oval 161"/>
<path d="M237.5 20C237.5 18.6193 238.619 17.5 240 17.5C241.381 17.5 242.5 18.6193 242.5 20C242.5 21.3807 241.381 22.5 240 22.5C238.619 22.5 237.5 21.3807 237.5 20Z" fill="#565656" fill-rule="nonzero" opacity="1" stroke="none" vectornator:layerName="Oval 162"/>
<path d="M257.5 20C257.5 18.6193 258.619 17.5 260 17.5C261.381 17.5 262.5 18.6193 262.5 20C262.5 21.3807 261.381 22.5 260 22.5C258.619 22.5 257.5 21.3807 257.5 20Z" fill="#565656" fill-rule="nonzero" opacity="1" stroke="none" vectornator:layerName="Oval 163"/>
<path d="M277.5 20C277.5 18.6193 278.619 17.5 280 17.5C281.381 17.5 282.5 18.6193 282.5 20C282.5 21.3807 281.381 22.5 280 22.5C278.619 22.5 277.5 21.3807 277.5 20Z" fill="#565656" fill-rule="nonzero" opacity="1" stroke="none" vectornator:layerName="Oval 164"/>
<path d="M217.5 40C217.5 38.6193 218.619 37.5 220 37.5C221.381 37.5 222.5 38.6193 222.5 40C222.5 41.3807 221.381 42.5 220 42.5C218.619 42.5 217.5 41.3807 217.5 40Z" fill="#565656" fill-rule="nonzero" opacity="1" stroke="none" vectornator:layerName="Oval 165"/>
<path d="M237.5 40C237.5 38.6193 238.619 37.5 240 37.5C241.381 37.5 242.5 38.6193 242.5 40C242.5 41.3807 241.381 42.5 240 42.5C238.619 42.5 237.5 41.3807 237.5 40Z" fill="#565656" fill-rule="nonzero" opacity="1" stroke="none" vectornator:layerName="Oval 166"/>
<path d="M257.5 40C257.5 38.6193 258.619 37.5 260 37.5C261.381 37.5 262.5 38.6193 262.5 40C262.5 41.3807 261.381 42.5 260 42.5C258.619 42.5 257.5 41.3807 257.5 40Z" fill="#565656" fill-rule="nonzero" opacity="1" stroke="none" vectornator:layerName="Oval 167"/>
<path d="M277.5 40C277.5 38.6193 278.619 37.5 280 37.5C281.381 37.5 282.5 38.6193 282.5 40C282.5 41.3807 281.381 42.5 280 42.5C278.619 42.5 277.5 41.3807 277.5 40Z" fill="#565656" fill-rule="nonzero" opacity="1" stroke="none" vectornator:layerName="Oval 168"/>
<path d="M217.5 60C217.5 58.6193 218.619 57.5 220 57.5C221.381 57.5 222.5 58.6193 222.5 60C222.5 61.3807 221.381 62.5 220 62.5C218.619 62.5 217.5 61.3807 217.5 60Z" fill="#565656" fill-rule="nonzero" opacity="1" stroke="none" vectornator:layerName="Oval 169"/>
<path d="M237.5 60C237.5 58.6193 238.619 57.5 240 57.5C241.381 57.5 242.5 58.6193 242.5 60C242.5 61.3807 241.381 62.5 240 62.5C238.619 62.5 237.5 61.3807 237.5 60Z" fill="#565656" fill-rule="nonzero" opacity="1" stroke="none" vectornator:layerName="Oval 170"/>
<path d="M257.5 60C257.5 58.6193 258.619 57.5 260 57.5C261.381 57.5 262.5 58.6193 262.5 60C262.5 61.3807 261.381 62.5 260 62.5C258.619 62.5 257.5 61.3807 257.5 60Z" fill="#565656" fill-rule="nonzero" opacity="1" stroke="none" vectornator:layerName="Oval 171"/>
<path d="M277.5 60C277.5 58.6193 278.619 57.5 280 57.5C281.381 57.5 282.5 58.6193 282.5 60C282.5 61.3807 281.381 62.5 280 62.5C278.619 62.5 277.5 61.3807 277.5 60Z" fill="#565656" fill-rule="nonzero" opacity="1" stroke="none" vectornator:layerName="Oval 172"/>
<path d="M217.5 80C217.5 78.6193 218.619 77.5 220 77.5C221.381 77.5 222.5 78.6193 222.5 80C222.5 81.3807 221.381 82.5 220 82.5C218.619 82.5 217.5 81.3807 217.5 80Z" fill="#565656" fill-rule="nonzero" opacity="1" stroke="none" vectornator:layerName="Oval 173"/>
<path d="M237.5 80C237.5 78.6193 238.619 77.5 240 77.5C241.381 77.5 242.5 78.6193 242.5 80C242.5 81.3807 241.381 82.5 240 82.5C238.619 82.5 237.5 81.3807 237.5 80Z" fill="#565656" fill-rule="nonzero" opacity="1" stroke="none" vectornator:layerName="Oval 174"/>
<path d="M257.5 80C257.5 78.6193 258.619 77.5 260 77.5C261.381 77.5 262.5 78.6193 262.5 80C262.5 81.3807 261.381 82.5 260 82.5C258.619 82.5 257.5 81.3807 257.5 80Z" fill="#565656" fill-rule="nonzero" opacity="1" stroke="none" vectornator:layerName="Oval 175"/>
<path d="M277.5 80C277.5 78.6193 278.619 77.5 280 77.5C281.381 77.5 282.5 78.6193 282.5 80C282.5 81.3807 281.381 82.5 280 82.5C278.619 82.5 277.5 81.3807 277.5 80Z" fill="#565656" fill-rule="nonzero" opacity="1" stroke="none" vectornator:layerName="Oval 176"/>
<path d="M217.5 100C217.5 98.6193 218.619 97.5 220 97.5C221.381 97.5 222.5 98.6193 222.5 100C222.5 101.381 221.381 102.5 220 102.5C218.619 102.5 217.5 101.381 217.5 100Z" fill="#565656" fill-rule="nonzero" opacity="1" stroke="none" vectornator:layerName="Oval 177"/>
<path d="M237.5 100C237.5 98.6193 238.619 97.5 240 97.5C241.381 97.5 242.5 98.6193 242.5 100C242.5 101.381 241.381 102.5 240 102.5C238.619 102.5 237.5 101.381 237.5 100Z" fill="#565656" fill-rule="nonzero" opacity="1" stroke="none" vectornator:layerName="Oval 178"/>
<path d="M257.5 100C257.5 98.6193 258.619 97.5 260 97.5C261.381 97.5 262.5 98.6193 262.5 100C262.5 101.381 261.381 102.5 260 102.5C258.619 102.5 257.5 101.381 257.5 100Z" fill="#565656" fill-rule="nonzero" opacity="1" stroke="none" vectornator:layerName="Oval 179"/>
<path d="M277.5 100C277.5 98.6193 278.619 97.5 280 97.5C281.381 97.5 282.5 98.6193 282.5 100C282.5 101.381 281.381 102.5 280 102.5C278.619 102.5 277.5 101.381 277.5 100Z" fill="#565656" fill-rule="nonzero" opacity="1" stroke="none" vectornator:layerName="Oval 180"/>
<path d="M217.5 120C217.5 118.619 218.619 117.5 220 117.5C221.381 117.5 222.5 118.619 222.5 120C222.5 121.381 221.381 122.5 220 122.5C218.619 122.5 217.5 121.381 217.5 120Z" fill="#565656" fill-rule="nonzero" opacity="1" stroke="none" vectornator:layerName="Oval 181"/>
<path d="M237.5 120C237.5 118.619 238.619 117.5 240 117.5C241.381 117.5 242.5 118.619 242.5 120C242.5 121.381 241.381 122.5 240 122.5C238.619 122.5 237.5 121.381 237.5 120Z" fill="#565656" fill-rule="nonzero" opacity="1" stroke="none" vectornator:layerName="Oval 182"/>
<path d="M257.5 120C257.5 118.619 258.619 117.5 260 117.5C261.381 117.5 262.5 118.619 262.5 120C262.5 121.381 261.381 122.5 260 122.5C258.619 122.5 257.5 121.381 257.5 120Z" fill="#565656" fill-rule="nonzero" opacity="1" stroke="none" vectornator:layerName="Oval 183"/>
<path d="M277.5 120C277.5 118.619 278.619 117.5 280 117.5C281.381 117.5 282.5 118.619 282.5 120C282.5 121.381 281.381 122.5 280 122.5C278.619 122.5 277.5 121.381 277.5 120Z" fill="#565656" fill-rule="nonzero" opacity="1" stroke="none" vectornator:layerName="Oval 184"/>
<path d="M217.5 140C217.5 138.619 218.619 137.5 220 137.5C221.381 137.5 222.5 138.619 222.5 140C222.5 141.381 221.381 142.5 220 142.5C218.619 142.5 217.5 141.381 217.5 140Z" fill="#565656" fill-rule="nonzero" opacity="1" stroke="none" vectornator:layerName="Oval 185"/>
<path d="M237.5 140C237.5 138.619 238.619 137.5 240 137.5C241.381 137.5 242.5 138.619 242.5 140C242.5 141.381 241.381 142.5 240 142.5C238.619 142.5 237.5 141.381 237.5 140Z" fill="#565656" fill-rule="nonzero" opacity="1" stroke="none" vectornator:layerName="Oval 186"/>
<path d="M257.5 140C257.5 138.619 258.619 137.5 260 137.5C261.381 137.5 262.5 138.619 262.5 140C262.5 141.381 261.381 142.5 260 142.5C258.619 142.5 257.5 141.381 257.5 140Z" fill="#565656" fill-rule="nonzero" opacity="1" stroke="none" vectornator:layerName="Oval 187"/>
<path d="M277.5 140C277.5 138.619 278.619 137.5 280 137.5C281.381 137.5 282.5 138.619 282.5 140C282.5 141.381 281.381 142.5 280 142.5C278.619 142.5 277.5 141.381 277.5 140Z" fill="#565656" fill-rule="nonzero" opacity="1" stroke="none" vectornator:layerName="Oval 188"/>
<path d="M217.5 160C217.5 158.619 218.619 157.5 220 157.5C221.381 157.5 222.5 158.619 222.5 160C222.5 161.381 221.381 162.5 220 162.5C218.619 162.5 217.5 161.381 217.5 160Z" fill="#565656" fill-rule="nonzero" opacity="1" stroke="none" vectornator:layerName="Oval 189"/>
<path d="M237.5 160C237.5 158.619 238.619 157.5 240 157.5C241.381 157.5 242.5 158.619 242.5 160C242.5 161.381 241.381 162.5 240 162.5C238.619 162.5 237.5 161.381 237.5 160Z" fill="#565656" fill-rule="nonzero" opacity="1" stroke="none" vectornator:layerName="Oval 190"/>
<path d="M257.5 160C257.5 158.619 258.619 157.5 260 157.5C261.381 157.5 262.5 158.619 262.5 160C262.5 161.381 261.381 162.5 260 162.5C258.619 162.5 257.5 161.381 257.5 160Z" fill="#565656" fill-rule="nonzero" opacity="1" stroke="none" vectornator:layerName="Oval 191"/>
<path d="M277.5 160C277.5 158.619 278.619 157.5 280 157.5C281.381 157.5 282.5 158.619 282.5 160C282.5 161.381 281.381 162.5 280 162.5C278.619 162.5 277.5 161.381 277.5 160Z" fill="#565656" fill-rule="nonzero" opacity="1" stroke="none" vectornator:layerName="Oval 192"/>
<path d="M217.5 180C217.5 178.619 218.619 177.5 220 177.5C221.381 177.5 222.5 178.619 222.5 180C222.5 181.381 221.381 182.5 220 182.5C218.619 182.5 217.5 181.381 217.5 180Z" fill="#565656" fill-rule="nonzero" opacity="1" stroke="none" vectornator:layerName="Oval 193"/>
<path d="M237.5 180C237.5 178.619 238.619 177.5 240 177.5C241.381 177.5 242.5 178.619 242.5 180C242.5 181.381 241.381 182.5 240 182.5C238.619 182.5 237.5 181.381 237.5 180Z" fill="#565656" fill-rule="nonzero" opacity="1" stroke="none" vectornator:layerName="Oval 194"/>
<path d="M257.5 180C257.5 178.619 258.619 177.5 260 177.5C261.381 177.5 262.5 178.619 262.5 180C262.5 181.381 261.381 182.5 260 182.5C258.619 182.5 257.5 181.381 257.5 180Z" fill="#565656" fill-rule="nonzero" opacity="1" stroke="none" vectornator:layerName="Oval 195"/>
<path d="M277.5 180C277.5 178.619 278.619 177.5 280 177.5C281.381 177.5 282.5 178.619 282.5 180C282.5 181.381 281.381 182.5 280 182.5C278.619 182.5 277.5 181.381 277.5 180Z" fill="#565656" fill-rule="nonzero" opacity="1" stroke="none" vectornator:layerName="Oval 196"/>
<path d="M217.5 200C217.5 198.619 218.619 197.5 220 197.5C221.381 197.5 222.5 198.619 222.5 200C222.5 201.381 221.381 202.5 220 202.5C218.619 202.5 217.5 201.381 217.5 200Z" fill="#565656" fill-rule="nonzero" opacity="1" stroke="none" vectornator:layerName="Oval 197"/>
<path d="M237.5 200C237.5 198.619 238.619 197.5 240 197.5C241.381 197.5 242.5 198.619 242.5 200C242.5 201.381 241.381 202.5 240 202.5C238.619 202.5 237.5 201.381 237.5 200Z" fill="#565656" fill-rule="nonzero" opacity="1" stroke="none" vectornator:layerName="Oval 198"/>
<path d="M257.5 200C257.5 198.619 258.619 197.5 260 197.5C261.381 197.5 262.5 198.619 262.5 200C262.5 201.381 261.381 202.5 260 202.5C258.619 202.5 257.5 201.381 257.5 200Z" fill="#565656" fill-rule="nonzero" opacity="1" stroke="none" vectornator:layerName="Oval 199"/>
<path d="M277.5 200C277.5 198.619 278.619 197.5 280 197.5C281.381 197.5 282.5 198.619 282.5 200C282.5 201.381 281.381 202.5 280 202.5C278.619 202.5 277.5 201.381 277.5 200Z" fill="#565656" fill-rule="nonzero" opacity="1" stroke="none" vectornator:layerName="Oval 200"/>
<path d="M217.5 220C217.5 218.619 218.619 217.5 220 217.5C221.381 217.5 222.5 218.619 222.5 220C222.5 221.381 221.381 222.5 220 222.5C218.619 222.5 217.5 221.381 217.5 220Z" fill="#565656" fill-rule="nonzero" opacity="1" stroke="none" vectornator:layerName="Oval 201"/>
<path d="M237.5 220C237.5 218.619 238.619 217.5 240 217.5C241.381 217.5 242.5 218.619 242.5 220C242.5 221.381 241.381 222.5 240 222.5C238.619 222.5 237.5 221.381 237.5 220Z" fill="#565656" fill-rule="nonzero" opacity="1" stroke="none" vectornator:layerName="Oval 202"/>
<path d="M257.5 220C257.5 218.619 258.619 217.5 260 217.5C261.381 217.5 262.5 218.619 262.5 220C262.5 221.381 261.381 222.5 260 222.5C258.619 222.5 257.5 221.381 257.5 220Z" fill="#565656" fill-rule="nonzero" opacity="1" stroke="none" vectornator:layerName="Oval 203"/>
<path d="M277.5 220C277.5 218.619 278.619 217.5 280 217.5C281.381 217.5 282.5 218.619 282.5 220C282.5 221.381 281.381 222.5 280 222.5C278.619 222.5 277.5 221.381 277.5 220Z" fill="#565656" fill-rule="nonzero" opacity="1" stroke="none" vectornator:layerName="Oval 204"/>
<path d="M217.5 240C217.5 238.619 218.619 237.5 220 237.5C221.381 237.5 222.5 238.619 222.5 240C222.5 241.381 221.381 242.5 220 242.5C218.619 242.5 217.5 241.381 217.5 240Z" fill="#565656" fill-rule="nonzero" opacity="1" stroke="none" vectornator:layerName="Oval 205"/>
<path d="M237.5 240C237.5 238.619 238.619 237.5 240 237.5C241.381 237.5 242.5 238.619 242.5 240C242.5 241.381 241.381 242.5 240 242.5C238.619 242.5 237.5 241.381 237.5 240Z" fill="#565656" fill-rule="nonzero" opacity="1" stroke="none" vectornator:layerName="Oval 206"/>
<path d="M257.5 240C257.5 238.619 258.619 237.5 260 237.5C261.381 237.5 262.5 238.619 262.5 240C262.5 241.381 261.381 242.5 260 242.5C258.619 242.5 257.5 241.381 257.5 240Z" fill="#565656" fill-rule="nonzero" opacity="1" stroke="none" vectornator:layerName="Oval 207"/>
<path d="M277.5 240C277.5 238.619 278.619 237.5 280 237.5C281.381 237.5 282.5 238.619 282.5 240C282.5 241.381 281.381 242.5 280 242.5C278.619 242.5 277.5 241.381 277.5 240Z" fill="#565656" fill-rule="nonzero" opacity="1" stroke="none" vectornator:layerName="Oval 208"/>
<path d="M217.5 260C217.5 258.619 218.619 257.5 220 257.5C221.381 257.5 222.5 258.619 222.5 260C222.5 261.381 221.381 262.5 220 262.5C218.619 262.5 217.5 261.381 217.5 260Z" fill="#565656" fill-rule="nonzero" opacity="1" stroke="none" vectornator:layerName="Oval 209"/>
<path d="M237.5 260C237.5 258.619 238.619 257.5 240 257.5C241.381 257.5 242.5 258.619 242.5 260C242.5 261.381 241.381 262.5 240 262.5C238.619 262.5 237.5 261.381 237.5 260Z" fill="#565656" fill-rule="nonzero" opacity="1" stroke="none" vectornator:layerName="Oval 210"/>
<path d="M257.5 260C257.5 258.619 258.619 257.5 260 257.5C261.381 257.5 262.5 258.619 262.5 260C262.5 261.381 261.381 262.5 260 262.5C258.619 262.5 257.5 261.381 257.5 260Z" fill="#565656" fill-rule="nonzero" opacity="1" stroke="none" vectornator:layerName="Oval 211"/>
<path d="M277.5 260C277.5 258.619 278.619 257.5 280 257.5C281.381 257.5 282.5 258.619 282.5 260C282.5 261.381 281.381 262.5 280 262.5C278.619 262.5 277.5 261.381 277.5 260Z" fill="#565656" fill-rule="nonzero" opacity="1" stroke="none" vectornator:layerName="Oval 212"/>
<path d="M217.5 280C217.5 278.619 218.619 277.5 220 277.5C221.381 277.5 222.5 278.619 222.5 280C222.5 281.381 221.381 282.5 220 282.5C218.619 282.5 217.5 281.381 217.5 280Z" fill="#565656" fill-rule="nonzero" opacity="1" stroke="none" vectornator:layerName="Oval 213"/>
<path d="M237.5 280C237.5 278.619 238.619 277.5 240 277.5C241.381 277.5 242.5 278.619 242.5 280C242.5 281.381 241.381 282.5 240 282.5C238.619 282.5 237.5 281.381 237.5 280Z" fill="#565656" fill-rule="nonzero" opacity="1" stroke="none" vectornator:layerName="Oval 214"/>
<path d="M257.5 280C257.5 278.619 258.619 277.5 260 277.5C261.381 277.5 262.5 278.619 262.5 280C262.5 281.381 261.381 282.5 260 282.5C258.619 282.5 257.5 281.381 257.5 280Z" fill="#565656" fill-rule="nonzero" opacity="1" stroke="none" vectornator:layerName="Oval 215"/>
<path d="M277.5 280C277.5 278.619 278.619 277.5 280 277.5C281.381 277.5 282.5 278.619 282.5 280C282.5 281.381 281.381 282.5 280 282.5C278.619 282.5 277.5 281.381 277.5 280Z" fill="#565656" fill-rule="nonzero" opacity="1" stroke="none" vectornator:layerName="Oval 216"/>
<path d="M217.5 300C217.5 298.619 218.619 297.5 220 297.5C221.381 297.5 222.5 298.619 222.5 300C222.5 301.381 221.381 302.5 220 302.5C218.619 302.5 217.5 301.381 217.5 300Z" fill="#565656" fill-rule="nonzero" opacity="1" stroke="none" vectornator:layerName="Oval 217"/>
<path d="M237.5 300C237.5 298.619 238.619 297.5 240 297.5C241.381 297.5 242.5 298.619 242.5 300C242.5 301.381 241.381 302.5 240 302.5C238.619 302.5 237.5 301.381 237.5 300Z" fill="#565656" fill-rule="nonzero" opacity="1" stroke="none" vectornator:layerName="Oval 218"/>
<path d="M257.5 300C257.5 298.619 258.619 297.5 260 297.5C261.381 297.5 262.5 298.619 262.5 300C262.5 301.381 261.381 302.5 260 302.5C258.619 302.5 257.5 301.381 257.5 300Z" fill="#565656" fill-rule="nonzero" opacity="1" stroke="none" vectornator:layerName="Oval 219"/>
<path d="M277.5 300C277.5 298.619 278.619 297.5 280 297.5C281.381 297.5 282.5 298.619 282.5 300C282.5 301.381 281.381 302.5 280 302.5C278.619 302.5 277.5 301.381 277.5 300Z" fill="#565656" fill-rule="nonzero" opacity="1" stroke="none" vectornator:layerName="Oval 220"/>
<path d="M217.5 320C217.5 318.619 218.619 317.5 220 317.5C221.381 317.5 222.5 318.619 222.5 320C222.5 321.381 221.381 322.5 220 322.5C218.619 322.5 217.5 321.381 217.5 320Z" fill="#565656" fill-rule="nonzero" opacity="1" stroke="none" vectornator:layerName="Oval 221"/>
<path d="M237.5 320C237.5 318.619 238.619 317.5 240 317.5C241.381 317.5 242.5 318.619 242.5 320C242.5 321.381 241.381 322.5 240 322.5C238.619 322.5 237.5 321.381 237.5 320Z" fill="#565656" fill-rule="nonzero" opacity="1" stroke="none" vectornator:layerName="Oval 222"/>
<path d="M257.5 320C257.5 318.619 258.619 317.5 260 317.5C261.381 317.5 262.5 318.619 262.5 320C262.5 321.381 261.381 322.5 260 322.5C258.619 322.5 257.5 321.381 257.5 320Z" fill="#565656" fill-rule="nonzero" opacity="1" stroke="none" vectornator:layerName="Oval 223"/>
<path d="M277.5 320C277.5 318.619 278.619 317.5 280 317.5C281.381 317.5 282.5 318.619 282.5 320C282.5 321.381 281.381 322.5 280 322.5C278.619 322.5 277.5 321.381 277.5 320Z" fill="#565656" fill-rule="nonzero" opacity="1" stroke="none" vectornator:layerName="Oval 224"/>
<path d="M17.5 340C17.5 338.619 18.6193 337.5 20 337.5C21.3807 337.5 22.5 338.619 22.5 340C22.5 341.381 21.3807 342.5 20 342.5C18.6193 342.5 17.5 341.381 17.5 340Z" fill="#565656" fill-rule="nonzero" opacity="1" stroke="none" vectornator:layerName="Oval 225"/>
<path d="M37.5 340C37.5 338.619 38.6193 337.5 40 337.5C41.3807 337.5 42.5 338.619 42.5 340C42.5 341.381 41.3807 342.5 40 342.5C38.6193 342.5 37.5 341.381 37.5 340Z" fill="#565656" fill-rule="nonzero" opacity="1" stroke="none" vectornator:layerName="Oval 226"/>
<path d="M57.5 340C57.5 338.619 58.6193 337.5 60 337.5C61.3807 337.5 62.5 338.619 62.5 340C62.5 341.381 61.3807 342.5 60 342.5C58.6193 342.5 57.5 341.381 57.5 340Z" fill="#565656" fill-rule="nonzero" opacity="1" stroke="none" vectornator:layerName="Oval 227"/>
<path d="M77.5 340C77.5 338.619 78.6193 337.5 80 337.5C81.3807 337.5 82.5 338.619 82.5 340C82.5 341.381 81.3807 342.5 80 342.5C78.6193 342.5 77.5 341.381 77.5 340Z" fill="#565656" fill-rule="nonzero" opacity="1" stroke="none" vectornator:layerName="Oval 228"/>
<path d="M97.5 340C97.5 338.619 98.6193 337.5 100 337.5C101.381 337.5 102.5 338.619 102.5 340C102.5 341.381 101.381 342.5 100 342.5C98.6193 342.5 97.5 341.381 97.5 340Z" fill="#565656" fill-rule="nonzero" opacity="1" stroke="none" vectornator:layerName="Oval 229"/>
<path d="M17.5 360C17.5 358.619 18.6193 357.5 20 357.5C21.3807 357.5 22.5 358.619 22.5 360C22.5 361.381 21.3807 362.5 20 362.5C18.6193 362.5 17.5 361.381 17.5 360Z" fill="#565656" fill-rule="nonzero" opacity="1" stroke="none" vectornator:layerName="Oval 230"/>
<path d="M37.5 360C37.5 358.619 38.6193 357.5 40 357.5C41.3807 357.5 42.5 358.619 42.5 360C42.5 361.381 41.3807 362.5 40 362.5C38.6193 362.5 37.5 361.381 37.5 360Z" fill="#565656" fill-rule="nonzero" opacity="1" stroke="none" vectornator:layerName="Oval 231"/>
<path d="M57.5 360C57.5 358.619 58.6193 357.5 60 357.5C61.3807 357.5 62.5 358.619 62.5 360C62.5 361.381 61.3807 362.5 60 362.5C58.6193 362.5 57.5 361.381 57.5 360Z" fill="#565656" fill-rule="nonzero" opacity="1" stroke="none" vectornator:layerName="Oval 232"/>
<path d="M77.5 360C77.5 358.619 78.6193 357.5 80 357.5C81.3807 357.5 82.5 358.619 82.5 360C82.5 361.381 81.3807 362.5 80 362.5C78.6193 362.5 77.5 361.381 77.5 360Z" fill="#565656" fill-rule="nonzero" opacity="1" stroke="none" vectornator:layerName="Oval 233"/>
<path d="M97.5 360C97.5 358.619 98.6193 357.5 100 357.5C101.381 357.5 102.5 358.619 102.5 360C102.5 361.381 101.381 362.5 100 362.5C98.6193 362.5 97.5 361.381 97.5 360Z" fill="#565656" fill-rule="nonzero" opacity="1" stroke="none" vectornator:layerName="Oval 234"/>
<path d="M17.5 380C17.5 378.619 18.6193 377.5 20 377.5C21.3807 377.5 22.5 378.619 22.5 380C22.5 381.381 21.3807 382.5 20 382.5C18.6193 382.5 17.5 381.381 17.5 380Z" fill="#565656" fill-rule="nonzero" opacity="1" stroke="none" vectornator:layerName="Oval 235"/>
<path d="M37.5 380C37.5 378.619 38.6193 377.5 40 377.5C41.3807 377.5 42.5 378.619 42.5 380C42.5 381.381 41.3807 382.5 40 382.5C38.6193 382.5 37.5 381.381 37.5 380Z" fill="#565656" fill-rule="nonzero" opacity="1" stroke="none" vectornator:layerName="Oval 236"/>
<path d="M57.5 380C57.5 378.619 58.6193 377.5 60 377.5C61.3807 377.5 62.5 378.619 62.5 380C62.5 381.381 61.3807 382.5 60 382.5C58.6193 382.5 57.5 381.381 57.5 380Z" fill="#565656" fill-rule="nonzero" opacity="1" stroke="none" vectornator:layerName="Oval 237"/>
<path d="M77.5 380C77.5 378.619 78.6193 377.5 80 377.5C81.3807 377.5 82.5 378.619 82.5 380C82.5 381.381 81.3807 382.5 80 382.5C78.6193 382.5 77.5 381.381 77.5 380Z" fill="#565656" fill-rule="nonzero" opacity="1" stroke="none" vectornator:layerName="Oval 238"/>
<path d="M97.5 380C97.5 378.619 98.6193 377.5 100 377.5C101.381 377.5 102.5 378.619 102.5 380C102.5 381.381 101.381 382.5 100 382.5C98.6193 382.5 97.5 381.381 97.5 380Z" fill="#565656" fill-rule="nonzero" opacity="1" stroke="none" vectornator:layerName="Oval 239"/>
<path d="M17.5 400C17.5 398.619 18.6193 397.5 20 397.5C21.3807 397.5 22.5 398.619 22.5 400C22.5 401.381 21.3807 402.5 20 402.5C18.6193 402.5 17.5 401.381 17.5 400Z" fill="#565656" fill-rule="nonzero" opacity="1" stroke="none" vectornator:layerName="Oval 240"/>
<path d="M37.5 400C37.5 398.619 38.6193 397.5 40 397.5C41.3807 397.5 42.5 398.619 42.5 400C42.5 401.381 41.3807 402.5 40 402.5C38.6193 402.5 37.5 401.381 37.5 400Z" fill="#565656" fill-rule="nonzero" opacity="1" stroke="none" vectornator:layerName="Oval 241"/>
<path d="M57.5 400C57.5 398.619 58.6193 397.5 60 397.5C61.3807 397.5 62.5 398.619 62.5 400C62.5 401.381 61.3807 402.5 60 402.5C58.6193 402.5 57.5 401.381 57.5 400Z" fill="#565656" fill-rule="nonzero" opacity="1" stroke="none" vectornator:layerName="Oval 242"/>
<path d="M77.5 400C77.5 398.619 78.6193 397.5 80 397.5C81.3807 397.5 82.5 398.619 82.5 400C82.5 401.381 81.3807 402.5 80 402.5C78.6193 402.5 77.5 401.381 77.5 400Z" fill="#565656" fill-rule="nonzero" opacity="1" stroke="none" vectornator:layerName="Oval 243"/>
<path d="M97.5 400C97.5 398.619 98.6193 397.5 100 397.5C101.381 397.5 102.5 398.619 102.5 400C102.5 401.381 101.381 402.5 100 402.5C98.6193 402.5 97.5 401.381 97.5 400Z" fill="#565656" fill-rule="nonzero" opacity="1" stroke="none" vectornator:layerName="Oval 244"/>
<path d="M117.5 340C117.5 338.619 118.619 337.5 120 337.5C121.381 337.5 122.5 338.619 122.5 340C122.5 341.381 121.381 342.5 120 342.5C118.619 342.5 117.5 341.381 117.5 340Z" fill="#565656" fill-rule="nonzero" opacity="1" stroke="none" vectornator:layerName="Oval 245"/>
<path d="M137.5 340C137.5 338.619 138.619 337.5 140 337.5C141.381 337.5 142.5 338.619 142.5 340C142.5 341.381 141.381 342.5 140 342.5C138.619 342.5 137.5 341.381 137.5 340Z" fill="#565656" fill-rule="nonzero" opacity="1" stroke="none" vectornator:layerName="Oval 246"/>
<path d="M157.5 340C157.5 338.619 158.619 337.5 160 337.5C161.381 337.5 162.5 338.619 162.5 340C162.5 341.381 161.381 342.5 160 342.5C158.619 342.5 157.5 341.381 157.5 340Z" fill="#565656" fill-rule="nonzero" opacity="1" stroke="none" vectornator:layerName="Oval 247"/>
<path d="M177.5 340C177.5 338.619 178.619 337.5 180 337.5C181.381 337.5 182.5 338.619 182.5 340C182.5 341.381 181.381 342.5 180 342.5C178.619 342.5 177.5 341.381 177.5 340Z" fill="#565656" fill-rule="nonzero" opacity="1" stroke="none" vectornator:layerName="Oval 248"/>
<path d="M197.5 340C197.5 338.619 198.619 337.5 200 337.5C201.381 337.5 202.5 338.619 202.5 340C202.5 341.381 201.381 342.5 200 342.5C198.619 342.5 197.5 341.381 197.5 340Z" fill="#565656" fill-rule="nonzero" opacity="1" stroke="none" vectornator:layerName="Oval 249"/>
<path d="M117.5 360C117.5 358.619 118.619 357.5 120 357.5C121.381 357.5 122.5 358.619 122.5 360C122.5 361.381 121.381 362.5 120 362.5C118.619 362.5 117.5 361.381 117.5 360Z" fill="#565656" fill-rule="nonzero" opacity="1" stroke="none" vectornator:layerName="Oval 250"/>
<path d="M137.5 360C137.5 358.619 138.619 357.5 140 357.5C141.381 357.5 142.5 358.619 142.5 360C142.5 361.381 141.381 362.5 140 362.5C138.619 362.5 137.5 361.381 137.5 360Z" fill="#565656" fill-rule="nonzero" opacity="1" stroke="none" vectornator:layerName="Oval 251"/>
<path d="M157.5 360C157.5 358.619 158.619 357.5 160 357.5C161.381 357.5 162.5 358.619 162.5 360C162.5 361.381 161.381 362.5 160 362.5C158.619 362.5 157.5 361.381 157.5 360Z" fill="#565656" fill-rule="nonzero" opacity="1" stroke="none" vectornator:layerName="Oval 252"/>
<path d="M177.5 360C177.5 358.619 178.619 357.5 180 357.5C181.381 357.5 182.5 358.619 182.5 360C182.5 361.381 181.381 362.5 180 362.5C178.619 362.5 177.5 361.381 177.5 360Z" fill="#565656" fill-rule="nonzero" opacity="1" stroke="none" vectornator:layerName="Oval 253"/>
<path d="M197.5 360C197.5 358.619 198.619 357.5 200 357.5C201.381 357.5 202.5 358.619 202.5 360C202.5 361.381 201.381 362.5 200 362.5C198.619 362.5 197.5 361.381 197.5 360Z" fill="#565656" fill-rule="nonzero" opacity="1" stroke="none" vectornator:layerName="Oval 254"/>
<path d="M117.5 380C117.5 378.619 118.619 377.5 120 377.5C121.381 377.5 122.5 378.619 122.5 380C122.5 381.381 121.381 382.5 120 382.5C118.619 382.5 117.5 381.381 117.5 380Z" fill="#565656" fill-rule="nonzero" opacity="1" stroke="none" vectornator:layerName="Oval 255"/>
<path d="M137.5 380C137.5 378.619 138.619 377.5 140 377.5C141.381 377.5 142.5 378.619 142.5 380C142.5 381.381 141.381 382.5 140 382.5C138.619 382.5 137.5 381.381 137.5 380Z" fill="#565656" fill-rule="nonzero" opacity="1" stroke="none" vectornator:layerName="Oval 256"/>
<path d="M157.5 380C157.5 378.619 158.619 377.5 160 377.5C161.381 377.5 162.5 378.619 162.5 380C162.5 381.381 161.381 382.5 160 382.5C158.619 382.5 157.5 381.381 157.5 380Z" fill="#565656" fill-rule="nonzero" opacity="1" stroke="none" vectornator:layerName="Oval 257"/>
<path d="M177.5 380C177.5 378.619 178.619 377.5 180 377.5C181.381 377.5 182.5 378.619 182.5 380C182.5 381.381 181.381 382.5 180 382.5C178.619 382.5 177.5 381.381 177.5 380Z" fill="#565656" fill-rule="nonzero" opacity="1" stroke="none" vectornator:layerName="Oval 258"/>
<path d="M197.5 380C197.5 378.619 198.619 377.5 200 377.5C201.381 377.5 202.5 378.619 202.5 380C202.5 381.381 201.381 382.5 200 382.5C198.619 382.5 197.5 381.381 197.5 380Z" fill="#565656" fill-rule="nonzero" opacity="1" stroke="none" vectornator:layerName="Oval 259"/>
<path d="M117.5 400C117.5 398.619 118.619 397.5 120 397.5C121.381 397.5 122.5 398.619 122.5 400C122.5 401.381 121.381 402.5 120 402.5C118.619 402.5 117.5 401.381 117.5 400Z" fill="#565656" fill-rule="nonzero" opacity="1" stroke="none" vectornator:layerName="Oval 260"/>
<path d="M137.5 400C137.5 398.619 138.619 397.5 140 397.5C141.381 397.5 142.5 398.619 142.5 400C142.5 401.381 141.381 402.5 140 402.5C138.619 402.5 137.5 401.381 137.5 400Z" fill="#565656" fill-rule="nonzero" opacity="1" stroke="none" vectornator:layerName="Oval 261"/>
<path d="M157.5 400C157.5 398.619 158.619 397.5 160 397.5C161.381 397.5 162.5 398.619 162.5 400C162.5 401.381 161.381 402.5 160 402.5C158.619 402.5 157.5 401.381 157.5 400Z" fill="#565656" fill-rule="nonzero" opacity="1" stroke="none" vectornator:layerName="Oval 262"/>
<path d="M177.5 400C177.5 398.619 178.619 397.5 180 397.5C181.381 397.5 182.5 398.619 182.5 400C182.5 401.381 181.381 402.5 180 402.5C178.619 402.5 177.5 401.381 177.5 400Z" fill="#565656" fill-rule="nonzero" opacity="1" stroke="none" vectornator:layerName="Oval 263"/>
<path d="M197.5 400C197.5 398.619 198.619 397.5 200 397.5C201.381 397.5 202.5 398.619 202.5 400C202.5 401.381 201.381 402.5 200 402.5C198.619 402.5 197.5 401.381 197.5 400Z" fill="#565656" fill-rule="nonzero" opacity="1" stroke="none" vectornator:layerName="Oval 264"/>
<path d="M17.5 420C17.5 418.619 18.6193 417.5 20 417.5C21.3807 417.5 22.5 418.619 22.5 420C22.5 421.381 21.3807 422.5 20 422.5C18.6193 422.5 17.5 421.381 17.5 420Z" fill="#565656" fill-rule="nonzero" opacity="1" stroke="none" vectornator:layerName="Oval 265"/>
<path d="M37.5 420C37.5 418.619 38.6193 417.5 40 417.5C41.3807 417.5 42.5 418.619 42.5 420C42.5 421.381 41.3807 422.5 40 422.5C38.6193 422.5 37.5 421.381 37.5 420Z" fill="#565656" fill-rule="nonzero" opacity="1" stroke="none" vectornator:layerName="Oval 266"/>
<path d="M57.5 420C57.5 418.619 58.6193 417.5 60 417.5C61.3807 417.5 62.5 418.619 62.5 420C62.5 421.381 61.3807 422.5 60 422.5C58.6193 422.5 57.5 421.381 57.5 420Z" fill="#565656" fill-rule="nonzero" opacity="1" stroke="none" vectornator:layerName="Oval 267"/>
<path d="M77.5 420C77.5 418.619 78.6193 417.5 80 417.5C81.3807 417.5 82.5 418.619 82.5 420C82.5 421.381 81.3807 422.5 80 422.5C78.6193 422.5 77.5 421.381 77.5 420Z" fill="#565656" fill-rule="nonzero" opacity="1" stroke="none" vectornator:layerName="Oval 268"/>
<path d="M97.5 420C97.5 418.619 98.6193 417.5 100 417.5C101.381 417.5 102.5 418.619 102.5 420C102.5 421.381 101.381 422.5 100 422.5C98.6193 422.5 97.5 421.381 97.5 420Z" fill="#565656" fill-rule="nonzero" opacity="1" stroke="none" vectornator:layerName="Oval 269"/>
<path d="M17.5 440C17.5 438.619 18.6193 437.5 20 437.5C21.3807 437.5 22.5 438.619 22.5 440C22.5 441.381 21.3807 442.5 20 442.5C18.6193 442.5 17.5 441.381 17.5 440Z" fill="#565656" fill-rule="nonzero" opacity="1" stroke="none" vectornator:layerName="Oval 270"/>
<path d="M37.5 440C37.5 438.619 38.6193 437.5 40 437.5C41.3807 437.5 42.5 438.619 42.5 440C42.5 441.381 41.3807 442.5 40 442.5C38.6193 442.5 37.5 441.381 37.5 440Z" fill="#565656" fill-rule="nonzero" opacity="1" stroke="none" vectornator:layerName="Oval 271"/>
<path d="M57.5 440C57.5 438.619 58.6193 437.5 60 437.5C61.3807 437.5 62.5 438.619 62.5 440C62.5 441.381 61.3807 442.5 60 442.5C58.6193 442.5 57.5 441.381 57.5 440Z" fill="#565656" fill-rule="nonzero" opacity="1" stroke="none" vectornator:layerName="Oval 272"/>
<path d="M77.5 440C77.5 438.619 78.6193 437.5 80 437.5C81.3807 437.5 82.5 438.619 82.5 440C82.5 441.381 81.3807 442.5 80 442.5C78.6193 442.5 77.5 441.381 77.5 440Z" fill="#565656" fill-rule="nonzero" opacity="1" stroke="none" vectornator:layerName="Oval 273"/>
<path d="M97.5 440C97.5 438.619 98.6193 437.5 100 437.5C101.381 437.5 102.5 438.619 102.5 440C102.5 441.381 101.381 442.5 100 442.5C98.6193 442.5 97.5 441.381 97.5 440Z" fill="#565656" fill-rule="nonzero" opacity="1" stroke="none" vectornator:layerName="Oval 274"/>
<path d="M17.5 460C17.5 458.619 18.6193 457.5 20 457.5C21.3807 457.5 22.5 458.619 22.5 460C22.5 461.381 21.3807 462.5 20 462.5C18.6193 462.5 17.5 461.381 17.5 460Z" fill="#565656" fill-rule="nonzero" opacity="1" stroke="none" vectornator:layerName="Oval 275"/>
<path d="M37.5 460C37.5 458.619 38.6193 457.5 40 457.5C41.3807 457.5 42.5 458.619 42.5 460C42.5 461.381 41.3807 462.5 40 462.5C38.6193 462.5 37.5 461.381 37.5 460Z" fill="#565656" fill-rule="nonzero" opacity="1" stroke="none" vectornator:layerName="Oval 276"/>
<path d="M57.5 460C57.5 458.619 58.6193 457.5 60 457.5C61.3807 457.5 62.5 458.619 62.5 460C62.5 461.381 61.3807 462.5 60 462.5C58.6193 462.5 57.5 461.381 57.5 460Z" fill="#565656" fill-rule="nonzero" opacity="1" stroke="none" vectornator:layerName="Oval 277"/>
<path d="M77.5 460C77.5 458.619 78.6193 457.5 80 457.5C81.3807 457.5 82.5 458.619 82.5 460C82.5 461.381 81.3807 462.5 80 462.5C78.6193 462.5 77.5 461.381 77.5 460Z" fill="#565656" fill-rule="nonzero" opacity="1" stroke="none" vectornator:layerName="Oval 278"/>
<path d="M97.5 460C97.5 458.619 98.6193 457.5 100 457.5C101.381 457.5 102.5 458.619 102.5 460C102.5 461.381 101.381 462.5 100 462.5C98.6193 462.5 97.5 461.381 97.5 460Z" fill="#565656" fill-rule="nonzero" opacity="1" stroke="none" vectornator:layerName="Oval 279"/>
<path d="M17.5 480C17.5 478.619 18.6193 477.5 20 477.5C21.3807 477.5 22.5 478.619 22.5 480C22.5 481.381 21.3807 482.5 20 482.5C18.6193 482.5 17.5 481.381 17.5 480Z" fill="#565656" fill-rule="nonzero" opacity="1" stroke="none" vectornator:layerName="Oval 280"/>
<path d="M37.5 480C37.5 478.619 38.6193 477.5 40 477.5C41.3807 477.5 42.5 478.619 42.5 480C42.5 481.381 41.3807 482.5 40 482.5C38.6193 482.5 37.5 481.381 37.5 480Z" fill="#565656" fill-rule="nonzero" opacity="1" stroke="none" vectornator:layerName="Oval 281"/>
<path d="M57.5 480C57.5 478.619 58.6193 477.5 60 477.5C61.3807 477.5 62.5 478.619 62.5 480C62.5 481.381 61.3807 482.5 60 482.5C58.6193 482.5 57.5 481.381 57.5 480Z" fill="#565656" fill-rule="nonzero" opacity="1" stroke="none" vectornator:layerName="Oval 282"/>
<path d="M77.5 480C77.5 478.619 78.6193 477.5 80 477.5C81.3807 477.5 82.5 478.619 82.5 480C82.5 481.381 81.3807 482.5 80 482.5C78.6193 482.5 77.5 481.381 77.5 480Z" fill="#565656" fill-rule="nonzero" opacity="1" stroke="none" vectornator:layerName="Oval 283"/>
<path d="M97.5 480C97.5 478.619 98.6193 477.5 100 477.5C101.381 477.5 102.5 478.619 102.5 480C102.5 481.381 101.381 482.5 100 482.5C98.6193 482.5 97.5 481.381 97.5 480Z" fill="#565656" fill-rule="nonzero" opacity="1" stroke="none" vectornator:layerName="Oval 284"/>
<path d="M117.5 420C117.5 418.619 118.619 417.5 120 417.5C121.381 417.5 122.5 418.619 122.5 420C122.5 421.381 121.381 422.5 120 422.5C118.619 422.5 117.5 421.381 117.5 420Z" fill="#565656" fill-rule="nonzero" opacity="1" stroke="none" vectornator:layerName="Oval 285"/>
<path d="M137.5 420C137.5 418.619 138.619 417.5 140 417.5C141.381 417.5 142.5 418.619 142.5 420C142.5 421.381 141.381 422.5 140 422.5C138.619 422.5 137.5 421.381 137.5 420Z" fill="#565656" fill-rule="nonzero" opacity="1" stroke="none" vectornator:layerName="Oval 286"/>
<path d="M157.5 420C157.5 418.619 158.619 417.5 160 417.5C161.381 417.5 162.5 418.619 162.5 420C162.5 421.381 161.381 422.5 160 422.5C158.619 422.5 157.5 421.381 157.5 420Z" fill="#565656" fill-rule="nonzero" opacity="1" stroke="none" vectornator:layerName="Oval 287"/>
<path d="M177.5 420C177.5 418.619 178.619 417.5 180 417.5C181.381 417.5 182.5 418.619 182.5 420C182.5 421.381 181.381 422.5 180 422.5C178.619 422.5 177.5 421.381 177.5 420Z" fill="#565656" fill-rule="nonzero" opacity="1" stroke="none" vectornator:layerName="Oval 288"/>
<path d="M197.5 420C197.5 418.619 198.619 417.5 200 417.5C201.381 417.5 202.5 418.619 202.5 420C202.5 421.381 201.381 422.5 200 422.5C198.619 422.5 197.5 421.381 197.5 420Z" fill="#565656" fill-rule="nonzero" opacity="1" stroke="none" vectornator:layerName="Oval 289"/>
<path d="M117.5 440C117.5 438.619 118.619 437.5 120 437.5C121.381 437.5 122.5 438.619 122.5 440C122.5 441.381 121.381 442.5 120 442.5C118.619 442.5 117.5 441.381 117.5 440Z" fill="#565656" fill-rule="nonzero" opacity="1" stroke="none" vectornator:layerName="Oval 290"/>
<path d="M137.5 440C137.5 438.619 138.619 437.5 140 437.5C141.381 437.5 142.5 438.619 142.5 440C142.5 441.381 141.381 442.5 140 442.5C138.619 442.5 137.5 441.381 137.5 440Z" fill="#565656" fill-rule="nonzero" opacity="1" stroke="none" vectornator:layerName="Oval 291"/>
<path d="M157.5 440C157.5 438.619 158.619 437.5 160 437.5C161.381 437.5 162.5 438.619 162.5 440C162.5 441.381 161.381 442.5 160 442.5C158.619 442.5 157.5 441.381 157.5 440Z" fill="#565656" fill-rule="nonzero" opacity="1" stroke="none" vectornator:layerName="Oval 292"/>
<path d="M177.5 440C177.5 438.619 178.619 437.5 180 437.5C181.381 437.5 182.5 438.619 182.5 440C182.5 441.381 181.381 442.5 180 442.5C178.619 442.5 177.5 441.381 177.5 440Z" fill="#565656" fill-rule="nonzero" opacity="1" stroke="none" vectornator:layerName="Oval 293"/>
<path d="M197.5 440C197.5 438.619 198.619 437.5 200 437.5C201.381 437.5 202.5 438.619 202.5 440C202.5 441.381 201.381 442.5 200 442.5C198.619 442.5 197.5 441.381 197.5 440Z" fill="#565656" fill-rule="nonzero" opacity="1" stroke="none" vectornator:layerName="Oval 294"/>
<path d="M117.5 460C117.5 458.619 118.619 457.5 120 457.5C121.381 457.5 122.5 458.619 122.5 460C122.5 461.381 121.381 462.5 120 462.5C118.619 462.5 117.5 461.381 117.5 460Z" fill="#565656" fill-rule="nonzero" opacity="1" stroke="none" vectornator:layerName="Oval 295"/>
<path d="M137.5 460C137.5 458.619 138.619 457.5 140 457.5C141.381 457.5 142.5 458.619 142.5 460C142.5 461.381 141.381 462.5 140 462.5C138.619 462.5 137.5 461.381 137.5 460Z" fill="#565656" fill-rule="nonzero" opacity="1" stroke="none" vectornator:layerName="Oval 296"/>
<path d="M157.5 460C157.5 458.619 158.619 457.5 160 457.5C161.381 457.5 162.5 458.619 162.5 460C162.5 461.381 161.381 462.5 160 462.5C158.619 462.5 157.5 461.381 157.5 460Z" fill="#565656" fill-rule="nonzero" opacity="1" stroke="none" vectornator:layerName="Oval 297"/>
<path d="M177.5 460C177.5 458.619 178.619 457.5 180 457.5C181.381 457.5 182.5 458.619 182.5 460C182.5 461.381 181.381 462.5 180 462.5C178.619 462.5 177.5 461.381 177.5 460Z" fill="#565656" fill-rule="nonzero" opacity="1" stroke="none" vectornator:layerName="Oval 298"/>
<path d="M197.5 460C197.5 458.619 198.619 457.5 200 457.5C201.381 457.5 202.5 458.619 202.5 460C202.5 461.381 201.381 462.5 200 462.5C198.619 462.5 197.5 461.381 197.5 460Z" fill="#565656" fill-rule="nonzero" opacity="1" stroke="none" vectornator:layerName="Oval 299"/>
<path d="M117.5 480C117.5 478.619 118.619 477.5 120 477.5C121.381 477.5 122.5 478.619 122.5 480C122.5 481.381 121.381 482.5 120 482.5C118.619 482.5 117.5 481.381 117.5 480Z" fill="#565656" fill-rule="nonzero" opacity="1" stroke="none" vectornator:layerName="Oval 300"/>
<path d="M137.5 480C137.5 478.619 138.619 477.5 140 477.5C141.381 477.5 142.5 478.619 142.5 480C142.5 481.381 141.381 482.5 140 482.5C138.619 482.5 137.5 481.381 137.5 480Z" fill="#565656" fill-rule="nonzero" opacity="1" stroke="none" vectornator:layerName="Oval 301"/>
<path d="M157.5 480C157.5 478.619 158.619 477.5 160 477.5C161.381 477.5 162.5 478.619 162.5 480C162.5 481.381 161.381 482.5 160 482.5C158.619 482.5 157.5 481.381 157.5 480Z" fill="#565656" fill-rule="nonzero" opacity="1" stroke="none" vectornator:layerName="Oval 302"/>
<path d="M177.5 480C177.5 478.619 178.619 477.5 180 477.5C181.381 477.5 182.5 478.619 182.5 480C182.5 481.381 181.381 482.5 180 482.5C178.619 482.5 177.5 481.381 177.5 480Z" fill="#565656" fill-rule="nonzero" opacity="1" stroke="none" vectornator:layerName="Oval 303"/>
<path d="M197.5 480C197.5 478.619 198.619 477.5 200 477.5C201.381 477.5 202.5 478.619 202.5 480C202.5 481.381 201.381 482.5 200 482.5C198.619 482.5 197.5 481.381 197.5 480Z" fill="#565656" fill-rule="nonzero" opacity="1" stroke="none" vectornator:layerName="Oval 304"/>
<path d="M217.5 340C217.5 338.619 218.619 337.5 220 337.5C221.381 337.5 222.5 338.619 222.5 340C222.5 341.381 221.381 342.5 220 342.5C218.619 342.5 217.5 341.381 217.5 340Z" fill="#565656" fill-rule="nonzero" opacity="1" stroke="none" vectornator:layerName="Oval 305"/>
<path d="M237.5 340C237.5 338.619 238.619 337.5 240 337.5C241.381 337.5 242.5 338.619 242.5 340C242.5 341.381 241.381 342.5 240 342.5C238.619 342.5 237.5 341.381 237.5 340Z" fill="#565656" fill-rule="nonzero" opacity="1" stroke="none" vectornator:layerName="Oval 306"/>
<path d="M257.5 340C257.5 338.619 258.619 337.5 260 337.5C261.381 337.5 262.5 338.619 262.5 340C262.5 341.381 261.381 342.5 260 342.5C258.619 342.5 257.5 341.381 257.5 340Z" fill="#565656" fill-rule="nonzero" opacity="1" stroke="none" vectornator:layerName="Oval 307"/>
<path d="M277.5 340C277.5 338.619 278.619 337.5 280 337.5C281.381 337.5 282.5 338.619 282.5 340C282.5 341.381 281.381 342.5 280 342.5C278.619 342.5 277.5 341.381 277.5 340Z" fill="#565656" fill-rule="nonzero" opacity="1" stroke="none" vectornator:layerName="Oval 308"/>
<path d="M217.5 360C217.5 358.619 218.619 357.5 220 357.5C221.381 357.5 222.5 358.619 222.5 360C222.5 361.381 221.381 362.5 220 362.5C218.619 362.5 217.5 361.381 217.5 360Z" fill="#565656" fill-rule="nonzero" opacity="1" stroke="none" vectornator:layerName="Oval 309"/>
<path d="M237.5 360C237.5 358.619 238.619 357.5 240 357.5C241.381 357.5 242.5 358.619 242.5 360C242.5 361.381 241.381 362.5 240 362.5C238.619 362.5 237.5 361.381 237.5 360Z" fill="#565656" fill-rule="nonzero" opacity="1" stroke="none" vectornator:layerName="Oval 310"/>
<path d="M257.5 360C257.5 358.619 258.619 357.5 260 357.5C261.381 357.5 262.5 358.619 262.5 360C262.5 361.381 261.381 362.5 260 362.5C258.619 362.5 257.5 361.381 257.5 360Z" fill="#565656" fill-rule="nonzero" opacity="1" stroke="none" vectornator:layerName="Oval 311"/>
<path d="M277.5 360C277.5 358.619 278.619 357.5 280 357.5C281.381 357.5 282.5 358.619 282.5 360C282.5 361.381 281.381 362.5 280 362.5C278.619 362.5 277.5 361.381 277.5 360Z" fill="#565656" fill-rule="nonzero" opacity="1" stroke="none" vectornator:layerName="Oval 312"/>
<path d="M217.5 380C217.5 378.619 218.619 377.5 220 377.5C221.381 377.5 222.5 378.619 222.5 380C222.5 381.381 221.381 382.5 220 382.5C218.619 382.5 217.5 381.381 217.5 380Z" fill="#565656" fill-rule="nonzero" opacity="1" stroke="none" vectornator:layerName="Oval 313"/>
<path d="M237.5 380C237.5 378.619 238.619 377.5 240 377.5C241.381 377.5 242.5 378.619 242.5 380C242.5 381.381 241.381 382.5 240 382.5C238.619 382.5 237.5 381.381 237.5 380Z" fill="#565656" fill-rule="nonzero" opacity="1" stroke="none" vectornator:layerName="Oval 314"/>
<path d="M257.5 380C257.5 378.619 258.619 377.5 260 377.5C261.381 377.5 262.5 378.619 262.5 380C262.5 381.381 261.381 382.5 260 382.5C258.619 382.5 257.5 381.381 257.5 380Z" fill="#565656" fill-rule="nonzero" opacity="1" stroke="none" vectornator:layerName="Oval 315"/>
<path d="M277.5 380C277.5 378.619 278.619 377.5 280 377.5C281.381 377.5 282.5 378.619 282.5 380C282.5 381.381 281.381 382.5 280 382.5C278.619 382.5 277.5 381.381 277.5 380Z" fill="#565656" fill-rule="nonzero" opacity="1" stroke="none" vectornator:layerName="Oval 316"/>
<path d="M217.5 400C217.5 398.619 218.619 397.5 220 397.5C221.381 397.5 222.5 398.619 222.5 400C222.5 401.381 221.381 402.5 220 402.5C218.619 402.5 217.5 401.381 217.5 400Z" fill="#565656" fill-rule="nonzero" opacity="1" stroke="none" vectornator:layerName="Oval 317"/>
<path d="M237.5 400C237.5 398.619 238.619 397.5 240 397.5C241.381 397.5 242.5 398.619 242.5 400C242.5 401.381 241.381 402.5 240 402.5C238.619 402.5 237.5 401.381 237.5 400Z" fill="#565656" fill-rule="nonzero" opacity="1" stroke="none" vectornator:layerName="Oval 318"/>
<path d="M257.5 400C257.5 398.619 258.619 397.5 260 397.5C261.381 397.5 262.5 398.619 262.5 400C262.5 401.381 261.381 402.5 260 402.5C258.619 402.5 257.5 401.381 257.5 400Z" fill="#565656" fill-rule="nonzero" opacity="1" stroke="none" vectornator:layerName="Oval 319"/>
<path d="M277.5 400C277.5 398.619 278.619 397.5 280 397.5C281.381 397.5 282.5 398.619 282.5 400C282.5 401.381 281.381 402.5 280 402.5C278.619 402.5 277.5 401.381 277.5 400Z" fill="#565656" fill-rule="nonzero" opacity="1" stroke="none" vectornator:layerName="Oval 320"/>
<path d="M217.5 420C217.5 418.619 218.619 417.5 220 417.5C221.381 417.5 222.5 418.619 222.5 420C222.5 421.381 221.381 422.5 220 422.5C218.619 422.5 217.5 421.381 217.5 420Z" fill="#565656" fill-rule="nonzero" opacity="1" stroke="none" vectornator:layerName="Oval 321"/>
<path d="M237.5 420C237.5 418.619 238.619 417.5 240 417.5C241.381 417.5 242.5 418.619 242.5 420C242.5 421.381 241.381 422.5 240 422.5C238.619 422.5 237.5 421.381 237.5 420Z" fill="#565656" fill-rule="nonzero" opacity="1" stroke="none" vectornator:layerName="Oval 322"/>
<path d="M257.5 420C257.5 418.619 258.619 417.5 260 417.5C261.381 417.5 262.5 418.619 262.5 420C262.5 421.381 261.381 422.5 260 422.5C258.619 422.5 257.5 421.381 257.5 420Z" fill="#565656" fill-rule="nonzero" opacity="1" stroke="none" vectornator:layerName="Oval 323"/>
<path d="M277.5 420C277.5 418.619 278.619 417.5 280 417.5C281.381 417.5 282.5 418.619 282.5 420C282.5 421.381 281.381 422.5 280 422.5C278.619 422.5 277.5 421.381 277.5 420Z" fill="#565656" fill-rule="nonzero" opacity="1" stroke="none" vectornator:layerName="Oval 324"/>
<path d="M217.5 440C217.5 438.619 218.619 437.5 220 437.5C221.381 437.5 222.5 438.619 222.5 440C222.5 441.381 221.381 442.5 220 442.5C218.619 442.5 217.5 441.381 217.5 440Z" fill="#565656" fill-rule="nonzero" opacity="1" stroke="none" vectornator:layerName="Oval 325"/>
<path d="M237.5 440C237.5 438.619 238.619 437.5 240 437.5C241.381 437.5 242.5 438.619 242.5 440C242.5 441.381 241.381 442.5 240 442.5C238.619 442.5 237.5 441.381 237.5 440Z" fill="#565656" fill-rule="nonzero" opacity="1" stroke="none" vectornator:layerName="Oval 326"/>
<path d="M257.5 440C257.5 438.619 258.619 437.5 260 437.5C261.381 437.5 262.5 438.619 262.5 440C262.5 441.381 261.381 442.5 260 442.5C258.619 442.5 257.5 441.381 257.5 440Z" fill="#565656" fill-rule="nonzero" opacity="1" stroke="none" vectornator:layerName="Oval 327"/>
<path d="M277.5 440C277.5 438.619 278.619 437.5 280 437.5C281.381 437.5 282.5 438.619 282.5 440C282.5 441.381 281.381 442.5 280 442.5C278.619 442.5 277.5 441.381 277.5 440Z" fill="#565656" fill-rule="nonzero" opacity="1" stroke="none" vectornator:layerName="Oval 328"/>
<path d="M217.5 460C217.5 458.619 218.619 457.5 220 457.5C221.381 457.5 222.5 458.619 222.5 460C222.5 461.381 221.381 462.5 220 462.5C218.619 462.5 217.5 461.381 217.5 460Z" fill="#565656" fill-rule="nonzero" opacity="1" stroke="none" vectornator:layerName="Oval 329"/>
<path d="M237.5 460C237.5 458.619 238.619 457.5 240 457.5C241.381 457.5 242.5 458.619 242.5 460C242.5 461.381 241.381 462.5 240 462.5C238.619 462.5 237.5 461.381 237.5 460Z" fill="#565656" fill-rule="nonzero" opacity="1" stroke="none" vectornator:layerName="Oval 330"/>
<path d="M257.5 460C257.5 458.619 258.619 457.5 260 457.5C261.381 457.5 262.5 458.619 262.5 460C262.5 461.381 261.381 462.5 260 462.5C258.619 462.5 257.5 461.381 257.5 460Z" fill="#565656" fill-rule="nonzero" opacity="1" stroke="none" vectornator:layerName="Oval 331"/>
<path d="M277.5 460C277.5 458.619 278.619 457.5 280 457.5C281.381 457.5 282.5 458.619 282.5 460C282.5 461.381 281.381 462.5 280 462.5C278.619 462.5 277.5 461.381 277.5 460Z" fill="#565656" fill-rule="nonzero" opacity="1" stroke="none" vectornator:layerName="Oval 332"/>
<path d="M217.5 480C217.5 478.619 218.619 477.5 220 477.5C221.381 477.5 222.5 478.619 222.5 480C222.5 481.381 221.381 482.5 220 482.5C218.619 482.5 217.5 481.381 217.5 480Z" fill="#565656" fill-rule="nonzero" opacity="1" stroke="none" vectornator:layerName="Oval 333"/>
<path d="M237.5 480C237.5 478.619 238.619 477.5 240 477.5C241.381 477.5 242.5 478.619 242.5 480C242.5 481.381 241.381 482.5 240 482.5C238.619 482.5 237.5 481.381 237.5 480Z" fill="#565656" fill-rule="nonzero" opacity="1" stroke="none" vectornator:layerName="Oval 334"/>
<path d="M257.5 480C257.5 478.619 258.619 477.5 260 477.5C261.381 477.5 262.5 478.619 262.5 480C262.5 481.381 261.381 482.5 260 482.5C258.619 482.5 257.5 481.381 257.5 480Z" fill="#565656" fill-rule="nonzero" opacity="1" stroke="none" vectornator:layerName="Oval 335"/>
<path d="M277.5 480C277.5 478.619 278.619 477.5 280 477.5C281.381 477.5 282.5 478.619 282.5 480C282.5 481.381 281.381 482.5 280 482.5C278.619 482.5 277.5 481.381 277.5 480Z" fill="#565656" fill-rule="nonzero" opacity="1" stroke="none" vectornator:layerName="Oval 336"/>
</g>
</svg>
